<svg xmlns="http://www.w3.org/2000/svg" width="64" height="64" viewBox="0 0 64 64"><g transform="translate(-3568 571)"><rect width="64" height="64" transform="translate(3568 -571)" fill="rgba(255,255,255,0)"/><path d="M-1102.01-77a24.521,24.521,0,0,0-24.49-24,24.521,24.521,0,0,0-24.49,24c-.01.17-.01.33-.01.5V-59h12V-77h-9.99a22.515,22.515,0,0,1,22.49-22,22.515,22.515,0,0,1,22.49,22H-1114v18h.59a31.88,31.88,0,0,1-8.59,2.82V-57h-7v4h7v-1.14c2.21-.38,8.11-1.64,12.32-4.86h7.68V-76.5C-1102-76.67-1102-76.83-1102.01-77ZM-1141-75v14h-8V-75Zm37,14h-8V-75h8Z" transform="translate(4727 -462)" fill="#fff"/></g></svg>