<svg xmlns="http://www.w3.org/2000/svg" width="64" height="64" viewBox="0 0 64 64"><g transform="translate(-3772 507)"><rect width="64" height="64" transform="translate(3772 -507)" fill="rgba(255,255,255,0)"/><path d="M-991.63-98l-8.87-14h-30l-8.87,14-.63,1,.72,1,23.78,33,23.78-33,.72-1Zm-11.62-12-3.12,9.69-6.57-9.69Zm-12.4,0h.3l8.13,12h-16.56Zm-7.59,14h15.48l-7.74,23.99Zm5.18-14-6.57,9.69-3.12-9.69Zm-11.64.48,3.65,11.31.07.21H-1037ZM-1036.82-96h11.48l9.3,28.83Zm21.86,28.83,9.3-28.83h11.48Zm9.94-30.83.07-.21,3.65-11.31L-994-98Z" transform="translate(4820 -387)" fill="#fff"/></g></svg>