<svg xmlns="http://www.w3.org/2000/svg" width="64" height="64" viewBox="0 0 64 64"><g transform="translate(718 -2218)"><rect width="64" height="64" transform="translate(-718 2218)" fill="rgba(255,255,255,0)"/><g transform="translate(-1798.681 1117.362)"><path d="M1113.168,1122.639a8.18,8.18,0,0,1,7.792,5.656l.532,1.626,1.671.371a5.741,5.741,0,0,1-1.251,11.346h-16.238a7.028,7.028,0,0,1-6.832-5.608,7,7,0,0,1,5.467-8.252l1.251-.254.684-1.078a8.221,8.221,0,0,1,6.924-3.807m0-3a11.224,11.224,0,0,0-9.456,5.2,10,10,0,0,0,1.95,19.8h16.259a8.741,8.741,0,0,0,1.891-17.275,11.206,11.206,0,0,0-10.644-7.724Z" fill="#ff8760"/><path d="M1135.681,1112.639a2,2,0,0,1,2,2v35a2,2,0,0,1-2,2h-45a2,2,0,0,1-2-2v-35a2,2,0,0,1,2-2h45m0-3h-45a5,5,0,0,0-5,5v35a5,5,0,0,0,5,5h45a5,5,0,0,0,5-5v-35a5,5,0,0,0-5-5Z" fill="#ff8760"/></g></g></svg>