<svg xmlns="http://www.w3.org/2000/svg" width="64" height="64" viewBox="0 0 64 64"><g transform="translate(637 -2218)"><rect width="64" height="64" transform="translate(-637 2218)" fill="rgba(255,255,255,0)"/><g transform="translate(-1795.681 1117.362)"><path d="M1213.178,1109.638h-45a5,5,0,0,0-5,5v35a5,5,0,0,0,5,5h45a5,5,0,0,0,5-5v-35A5,5,0,0,0,1213.178,1109.638Zm0,42h-45a2,2,0,0,1-2-2v-31.057h49v31.057A2,2,0,0,1,1213.178,1151.638Z" fill="#ee5394"/><path d="M1201.559,1145.68v2.883l-2.448-1.591-6.515-12.241a6.722,6.722,0,0,0,2.421-1.36" fill="#ee5294"/><path d="M1192.038,1124.328v-1.61a1.361,1.361,0,0,0-1.36-1.36v2.72a4.086,4.086,0,0,0-3.01,6.8l-7.87,14.8v2.89l2.45-1.6,7.83-14.73a3,3,0,0,0,.6,0,4.07,4.07,0,0,0,1.36-7.91Zm-1.36,5.19a1.36,1.36,0,1,1,1.36-1.36A1.361,1.361,0,0,1,1190.678,1129.518Z" fill="#ee5294"/></g></g></svg>