<svg xmlns="http://www.w3.org/2000/svg" width="64" height="64" viewBox="0 0 64 64"><g transform="translate(-3694 507)"><rect width="64" height="64" transform="translate(3694 -507)" fill="rgba(255,255,255,0)"/><path d="M-1097.62-62.211-1122.9-87.5l11.368-11.369-.486,3.047a7.564,7.564,0,0,0-.1,1.192,7.508,7.508,0,0,0,7.5,7.5,7.508,7.508,0,0,0,7.5-7.5,7.472,7.472,0,0,0-8.7-7.4l-3.042.482,11.245-11.244,7.085,7.085a8.546,8.546,0,0,1,7.915-5.421,8.51,8.51,0,0,1,8.5,8.5,8.546,8.546,0,0,1-5.422,7.915l7.206,7.215ZM-1120.076-87.5l22.456,22.456,22.456-22.457-8.413-8.424,1.959-.294a6.512,6.512,0,0,0,5.5-6.411,6.508,6.508,0,0,0-6.5-6.5,6.512,6.512,0,0,0-6.411,5.5l-.294,1.96-8.3-8.295-5.9,5.9a9.514,9.514,0,0,1,8.4,9.437,9.511,9.511,0,0,1-9.5,9.5,9.515,9.515,0,0,1-9.436-8.39Z" transform="translate(4823.904 -387.211)" fill="#fff"/></g></svg>