<svg xmlns="http://www.w3.org/2000/svg" viewBox="0 0 54.92 53.69" width="55px" height="55px"><defs><style>.cls-1,.cls-2{isolation:isolate;}.cls-2{fill:#a6d7ff;opacity:0.8;mix-blend-mode:multiply;}</style></defs><title>path2</title><g class="cls-1"><g id="图层_2" data-name="图层 2"><g id="图层_1-2" data-name="图层 1"><path id="patn_16460" data-name="patn 16460" class="cls-2" d="M30.09.3C39.4-2.2,38.5,11.63,44.78,16.4S61.43,35.47,49.31,43,6.72,44.62,2.05,37,13.14,24.53,16.87,19.64,21.65,2.57,30.09.3Z"/><path id="patn_16458" data-name="patn 16458" class="cls-2" d="M51.88,9.88c-3-4-27.05-3.79-44.82,5.88s3,21.36,7.63,25.45,8.8,13.3,18.46,12.42,7-15.51,10-21.9S56.65,16.12,51.88,9.88Z"/><path id="patn_16459" data-name="patn 16459" class="cls-2" d="M20.7,1.23c7.55-.65,7.12,11.14,14.1,13.56S52.29,21.42,52.59,27.4c.32,6.43-14.5,13.49-19.17,18.34s-10.37,8.34-16.07,5.4S9.82,38.7,10.41,28.92,11.39,2,20.7,1.23Z"/></g></g></g></svg>