<svg xmlns="http://www.w3.org/2000/svg" width="120" height="120" viewBox="0 0 120 120"><g transform="translate(-1244 -4643)"><rect width="120" height="120" transform="translate(1244 4643)" fill="#fff"/><g transform="translate(1253.568 4652.568)"><g transform="translate(0 0)"><path d="M85.661,108.065V111.5H78.725v-3.4h-10.3V104.59l-.019.019h3.474v-3.495h3.515v3.45H78.66V97.754H75.4V90.823h3.292V83.88H95.958v3.432h3.482V83.874h3.454V80.54l-.018.021h3.469v3.313h3.437v6.934h-6.864v3.485H99.446v3.441h6.9V94.349h3.437v10.218h-3.388v6.968h-3.517l.018.021v-3.438H99.4v3.438l.018-.021H95.951v3.446H89.157v-6.9H85.641v-3.514H95.9v-3.406H82.219v6.9Zm6.909-20.657H82.227V97.752H92.569Zm6.854,17.137h3.419v-3.371H99.423Z" transform="translate(-9.796 -14.979)" fill="#111"/><path d="M86.057,56.966h3.461v3.422H92.99V57.011h3.472v3.43h3.374l-.019-.021v6.8H93.04v3.454H89.585V74.2H99.837l-.019-.021v6.769H96.462v-3.24H93v6.778l.019-.018H82.641v3.506h3.438v3.461h3.47l-.019-.019v3.493H82.583V91.434h-3.34V87.962H65.349V84.486H62.007V80.981h3.34V77.655h3.438V74.2H65.349l.018-3.493-.019.019H75.807v3.43h3.461v-3.45H82.6v3.44H86.02V70.724H82.582l.021-6.965-.019.019,3.491-.021V67.2h3.419V63.776H86.055l.021-6.831ZM75.771,80.993H82.55V77.708H75.789v3.3H72.347V84.43h3.424Zm13.722-.018v-3.26H86.1v3.26Z" transform="translate(-13.687 -29.328)" fill="#111"/><path d="M48.3,66.406V63.071H44.857V59.634H62.008v3.4H58.63v6.793h3.4v-3.4h6.979V63.046l-.021.019,3.491-.021v3.308h6.757V63.064H72.464l.021-10.44-.019.019h3.359l-.019-.019v6.983h10.44v6.8H82.739V69.9H75.806v3.456l.019-.019-3.358.019V69.915H65.537v6.912l-3.49,0V73.387H58.628v3.422h3.437V90.544h-3.49V83.678H55.222v6.857H44.809V87.1h6.912V83.641H44.809V80.257H55.2V76.795H51.8V69.86h3.388V63.088H51.753v3.3h-3.47Z" transform="translate(-24.146 -31.956)" fill="#111"/><path d="M35.409,63.756V60.419H31.961V56.982H49.117v6.729h-3.31v3.519l.021-.019H42.355V70.7H38.913V74.12h3.424V70.682l3.491.021-.019-.019v3.511h3.359v6.8h-3.3v3.456h3.3l-.019,6.967.019-.021-6.831,0,.019.019V81H31.963V74.2h3.446V67.21l-.021.019H38.86V63.738H42.3V60.452H38.879v3.3l-3.491-.019Z" transform="translate(-31.959 -29.306)" fill="#111"/><path d="M74.943,105.9H71.475v3.443H68.018V105.9H64.636l.021.019v-6.8h3.29V92.183H64.674v3.429H61.162l.019.021V92.173H57.708V88.667l-.021.019h3.5V85.178h3.462V81.854l-.019.019h3.342V78.38h6.979v6.814H81.89V88.7H74.981v3.472h3.382v3.474H74.943v3.462H71.5v3.322h3.44l-.019,3.493Z" transform="translate(-16.314 -16.292)" fill="#111"/><path d="M31.968,39.772h24.1v24.1h-24.1Zm3.47,3.47V60.4H52.594V43.242Z" transform="translate(-31.955 -39.772)" fill="#111"/><path d="M79.148,63.873v-24.1h24.1v24.1Zm3.469-3.47H99.773V43.246H82.617Z" transform="translate(-3.262 -39.77)" fill="#111"/><path d="M56.06,111.073H31.96v-24.1h24.1ZM35.443,90.425v17.156H52.6V90.425Z" transform="translate(-31.96 -11.065)" fill="#111"/><path d="M69.816,98.048v3.469h-6.9v3.459H66.3v3.469H49.169V91.292h3.4v13.666h3.35v-3.4h3.459V98.067H69.837Z" transform="translate(-21.494 -8.44)" fill="#111"/><path d="M96.357,74.06q0,5.22,0,10.442l.018-.021H82.588V81.007H79.122l.019.019V77.519h3.474V74.06l-.019.018h3.515v3.43h6.8v-3.43h3.467Z" transform="translate(-3.278 -18.92)" fill="#111"/><path d="M62.893,53.615H59.4l.019.021V50.2H55.927v3.438l.019-.021H49.168V50.172h3.38V46.687h-3.39V43.228h3.411v-3.44h3.348v6.856h3.461V43.217h6.989l-.019-.021V46.7H62.874v6.931Z" transform="translate(-21.501 -39.762)" fill="#111"/><path d="M65.346,44.067v3.458H75.731v3.47H72.359v3.343h3.409v3.509l.019-.019H72.273v3.445H68.816V57.828H65.347l.019.019V54.342h3.414V51.014H62.007l.019.019V44.086h3.34Z" transform="translate(-13.687 -37.16)" fill="#111"/><path d="M59.866,43.221v-3.44h24v3.4H77.1v3.467H73.639v-3.4H70.176v3.429H66.659l.021.019V43.2H59.847Z" transform="translate(-15 -39.767)" fill="#111"/><path d="M62.044,87.354v6.912H51.792V87.394H44.83V83.88l-.021.019H48.3V80.54l-.019.019,3.493-.019V83.9h3.474l-.018-.019V90.8h3.374V87.373h3.459Z" transform="translate(-24.146 -14.979)" fill="#111"/><path d="M76.067,46.247h3.472V63.484l.019-.021H76.065V70.3l.019-.019-3.359.019q.01-5.155.019-10.307l-.019.019h3.3V53.061H72.772V49.74h3.316V46.228Z" transform="translate(-7.168 -35.846)" fill="#111"/><path d="M61.6,88.667H58.1l.021.019V85.194H51.29l.018.019-.018-3.359h6.849V78.38h10.4l-.019,3.493.019-.019H61.577v6.833Z" transform="translate(-20.204 -16.292)" fill="#111"/><path d="M92.465,65.5q0,5.153,0,10.3l.019-.019H88.98V68.974H85.519l.019.021V65.523h6.946Z" transform="translate(0.612 -24.123)" fill="#111"/><path d="M31.968,76.245h3.387v13.7H31.968Z" transform="translate(-31.955 -17.591)" fill="#111"/><path d="M40.592,85.21V81.886h3.339V78.379l-.019.021h6.947v3.474l.019-.019H47.385v3.359l.021-.019-6.833,0Z" transform="translate(-26.722 -16.293)" fill="#111"/><path d="M61.16,63.046H57.723v-10.4h3.435l-.019-.021V63.066Z" transform="translate(-16.292 -31.956)" fill="#111"/><path d="M56.841,48.386V58.635H53.386V48.386l-.019.021H56.86Z" transform="translate(-18.941 -34.533)" fill="#111"/><path d="M61.18,55.222V51.762H57.706V48.386l-.019.021h6.967l-.019-.019v6.833l.019-.019H61.161Z" transform="translate(-16.314 -34.533)" fill="#111"/><path d="M52.561,50.5v6.857h-3.4V50.5Z" transform="translate(-21.498 -33.251)" fill="#111"/><path d="M40.571,63.361l6.835,0-.019-.021,0,3.491.019-.019-6.83,0,.019.019V63.342Z" transform="translate(-26.723 -25.438)" fill="#111"/><path d="M61.141,89.095V95.87H57.722V89.116H61.16Z" transform="translate(-16.293 -9.776)" fill="#111"/><path d="M70.564,52.643h3.475v3.475l.019-.019H70.583V52.624Z" transform="translate(-8.483 -31.956)" fill="#111"/><path d="M85.537,60.419V56.982h3.421V60.4h-3.44Z" transform="translate(0.612 -29.306)" fill="#111"/><path d="M92.029,76.245h3.387v3.4H92.029Z" transform="translate(4.571 -17.591)" fill="#111"/><path d="M39.706,78.378v3.435H36.287V78.4h3.438Z" transform="translate(-29.329 -16.294)" fill="#111"/><path d="M93.31,60.4H89.873V56.972H93.29V60.42Z" transform="translate(3.26 -29.312)" fill="#111"/><path d="M35.4,64.656H31.968V61.2H35.4l-.021-.019v3.493Z" transform="translate(-31.955 -26.751)" fill="#111"/><path d="M44.828,64.677V61.2H48.3l-.021-.019v3.474H44.809Z" transform="translate(-24.146 -26.751)" fill="#111"/><path d="M41.866,82.615V86.05H38.447V82.634h3.438Z" transform="translate(-28.015 -13.717)" fill="#111"/><path d="M89.857,66.815V63.38h3.421V66.8h-3.44Z" transform="translate(3.239 -25.415)" fill="#111"/><path d="M91.154,99.814v3.435H87.7V99.814l-.018.021h3.491Z" transform="translate(1.927 -3.257)" fill="#111"/><path d="M92.036,67.688h3.388v3.387H92.036Z" transform="translate(4.576 -22.795)" fill="#111"/><path d="M67.506,103.244H64.122V99.849h3.384Z" transform="translate(-12.4 -3.236)" fill="#111"/><path d="M68.439,99.842h3.393v3.388H68.439Z" transform="translate(-9.775 -3.24)" fill="#111"/><path d="M89.839,71.918h3.435v3.456H89.839l.019.018V71.9Z" transform="translate(3.239 -20.234)" fill="#111"/><path d="M53.409,91.273h3.363V94.55H53.409Z" transform="translate(-18.916 -8.451)" fill="#111"/><path d="M76.065,47.521h-3.3V44.1h3.282V47.54Z" transform="translate(-7.146 -37.139)" fill="#111"/><path d="M92,59.124h3.435v3.285H92.017V59.1Z" transform="translate(4.553 -28.016)" fill="#111"/><path d="M68.4,94.616V91.258H71.9v3.358Z" transform="translate(-9.796 -8.46)" fill="#111"/><circle cx="2.375" cy="2.375" r="2.375" transform="translate(64.861 64.866)" fill="#111"/><path d="M79.15,90.356v-3.38h3.392v3.38Z" transform="translate(-3.261 -11.065)" fill="#111"/><path d="M57.687,68.976h3.461V65.5h3.506v3.474h3.34v3.493H57.687Z" transform="translate(-16.314 -24.124)" fill="#111"/><path d="M64.632,75.356v3.491h-6.91V71.929h3.395v3.427Z" transform="translate(-16.293 -20.216)" fill="#111"/><path d="M52.621,81.851H49.13V78.416h3.491Z" transform="translate(-21.518 -16.27)" fill="#111"/><circle cx="2.469" cy="2.469" r="2.469" transform="translate(16.467 50.943)" fill="#111"/><ellipse cx="2.375" cy="2.469" rx="2.375" ry="2.469" transform="translate(47.625 57.891)" fill="#111"/><path d="M70.565,61.182h3.491v3.433H70.565Z" transform="translate(-8.482 -26.751)" fill="#111"/><path d="M74.034,78.38v3.493H70.6V78.38Z" transform="translate(-8.46 -16.292)" fill="#111"/><path d="M44.807,65.52h3.435v3.419H44.828V65.5Z" transform="translate(-24.147 -24.125)" fill="#111"/><path d="M36.288,44.093h10.2v10.2h-10.2Z" transform="translate(-29.328 -37.144)" fill="#111"/><path d="M93.685,44.1V54.3h-10.2V44.1Z" transform="translate(-0.626 -37.137)" fill="#111"/><path d="M46.481,101.5h-10.2V91.3h10.2Z" transform="translate(-29.332 -8.436)" fill="#111"/></g></g></g></svg>