<svg xmlns="http://www.w3.org/2000/svg" width="600" height="535.714" viewBox="0 0 600 535.714"><g transform="translate(-1179 -369)"><path d="M1521.643 378.568l-7-1.511.45-2.164 7.018 1.511zM1530.901 380.614l-6.986-1.59.482-2.164 7.007 1.586zM1540.135 382.757l-6.964-1.661.5-2.154 6.986 1.661zM1549.361 384.975l-6.954-1.714.514-2.164 6.975 1.725zM1558.552 387.278l-6.932-1.779.536-2.154 6.964 1.789zM1567.732 389.668l-6.921-1.843.557-2.143 6.943 1.854zM1576.881 392.154l-6.911-1.918.589-2.143 6.921 1.929zM1585.996 394.725l-6.879-1.993.6-2.132 6.911 1.993zM1595.09 397.404l-6.857-2.068.621-2.132 6.879 2.079zM1604.14 400.2a265.826 265.826 0 0 0-6.836-2.143l.664-2.143c2.282.707 4.575 1.414 6.846 2.143zM1613.146 403.104c-2.261-.75-4.521-1.532-6.793-2.25l.686-2.143c2.282.729 4.543 1.511 6.814 2.261zM1622.109 406.146l-6.761-2.357.718-2.1 6.793 2.368zM1631.018 409.35c-2.229-.846-4.479-1.65-6.718-2.475l.75-2.079c2.25.825 4.511 1.629 6.75 2.486zM1639.839 412.736q-3.311-1.35-6.654-2.614l.793-2.068a273.66 273.66 0 0 1 6.7 2.625zM1648.583 416.314c-2.2-.921-4.371-1.9-6.589-2.775l.836-2.046c2.239.879 4.425 1.864 6.632 2.786zM1657.22 420.129c-2.143-1.007-4.339-1.971-6.5-2.957l.889-2.036c2.143 1 4.382 1.971 6.557 2.989zM1667.756 424.264l-3.161-1.639-3.214-1.553.954-2 3.246 1.575 3.2 1.65zM1675.888 428.72c-2.079-1.157-4.125-2.368-6.225-3.471l1.071-1.95c2.143 1.071 4.2 2.346 6.311 3.514zM1683.677 433.693c-.975-.664-1.939-1.35-2.936-1.993l-3.032-1.864 1.146-1.907 3.086 1.9c1.007.654 1.993 1.361 3 2.036zM1691.006 439.264a80.159 80.159 0 0 0-5.561-4.371l1.286-1.8q2.957 2.143 5.721 4.489zM1697.68 445.618a92.287 92.287 0 0 0-5.089-4.939l1.489-1.65c1.789 1.629 3.536 3.3 5.2 5.057zM1703.798 452.572c-1.511-1.832-3.043-3.643-4.661-5.357l1.629-1.511c1.661 1.768 3.214 3.611 4.746 5.475zM1709.338 459.921q-2.025-2.925-4.211-5.721l1.736-1.361q2.229 2.85 4.286 5.829zM1714.309 467.711c-1.189-2.046-2.464-4.039-3.771-6.021l1.854-1.232c1.318 2.014 2.625 4.05 3.825 6.139zM1718.67 475.854q-1.543-3.214-3.3-6.289l1.939-1.071c1.179 2.143 2.3 4.286 3.354 6.429zM1722.367 484.152c-.879-2.143-1.779-4.393-2.786-6.536l2.014-.932c1.071 2.143 1.95 4.425 2.839 6.675zM1725.27 492.882a107.42 107.42 0 0 0-2.143-6.75l2.079-.75q1.232 3.407 2.218 6.9zM1727.295 501.847c-.375-2.325-.9-4.629-1.468-6.921l2.143-.546q.852 3.52 1.5 7.1zM1728.259 510.971a73.828 73.828 0 0 0-.643-7.039l2.2-.311c.343 2.4.546 4.832.664 7.254zM1727.981 520.106a59.412 59.412 0 0 0 .332-7.039h2.218a61.3 61.3 0 0 1-.343 7.286zM1726.298 529.061a55.57 55.57 0 0 0 1.436-6.879l2.2.311a57.79 57.79 0 0 1-1.5 7.157zM1723.095 537.586a50.977 50.977 0 0 0 2.593-6.525l2.143.686a52.276 52.276 0 0 1-2.711 6.8zM1718.381 545.373a50.1 50.1 0 0 0 3.75-5.925l1.961 1.071a52.5 52.5 0 0 1-3.922 6.193zM1712.381 552.24c.418-.418.846-.814 1.254-1.243l1.2-1.286c.814-.846 1.521-1.779 2.282-2.668l1.736 1.371c-.793.932-1.532 1.907-2.379 2.786l-1.243 1.339c-.429.439-.868.857-1.307 1.286zM1705.309 558.091a62.314 62.314 0 0 0 5.5-4.414l1.479 1.639a64.478 64.478 0 0 1-5.679 4.575zM1697.573 562.968c1.071-.568 2.046-1.179 3.075-1.768s1.982-1.264 2.979-1.9l1.232 1.832c-1.018.654-2.025 1.329-3.064 1.961s-2.143 1.232-3.15 1.811zM1689.238 566.916c1.071-.461 2.143-.921 3.214-1.436s2.143-.986 3.214-1.554l1.007 1.971c-1.071.579-2.143 1.071-3.214 1.586s-2.207 1.007-3.321 1.468zM1680.613 570.135l3.375-1.136 3.321-1.254.814 2.057-3.386 1.286-3.429 1.157zM1671.731 572.681l3.439-.9 3.418-1.007.643 2.121-3.471 1.018-3.493.921zM1662.677 574.648l3.5-.686 3.471-.793.5 2.164-3.525.793-3.536.7zM1651.325 575.407l3.568-.171c1.189-.064 2.314-.193 3.471-.289l.343 2.2c-1.232.1-2.475.246-3.675.3l-3.6.182zM1641.838 575.803c2.389-.1 4.779-.161 7.168-.289l.1 2.218c-2.4.129-4.789.182-7.179.289zM1632.351 576.123l7.168-.246.075 2.218-7.168.246zM1622.716 577.268l7.179-.215.066 2.218-7.178.215zM1613.358 576.714l7.176-.205.064 2.217-7.177.205zM1603.849 576.989l7.176-.204.063 2.217-7.176.204zM1594.376 577.196l7.176-.193.06 2.217-7.176.193zM1584.865 577.474l7.176-.194.06 2.217-7.176.194zM1575.387 577.692l7.177-.185.057 2.217-7.177.185zM1565.878 577.921l7.177-.185.057 2.217-7.177.185zM1556.371 578.165l7.179-.18.055 2.219-7.179.179zM1546.882 578.401l7.179-.18.055 2.219-7.179.179zM1537.36 578.667l7.177-.18.055 2.217-7.176.18zM1529.013 577.302l7.179-.215.066 2.218-7.178.215zM1518.379 579.102l7.179-.18.055 2.219-7.179.179zM1508.859 579.371l7.179-.18.055 2.219-7.179.179zM1499.391 579.569l7.179-.187.058 2.218-7.18.187zM1489.879 579.842l7.179-.187.058 2.218-7.18.187zM1481.173 579.232l7.179-.215.066 2.218-7.178.215zM1470.879 580.342l7.176-.201.062 2.217-7.176.201zM1461.392 580.593l7.176-.207.064 2.217-7.176.207zM1451.877 580.902l7.179-.215.067 2.218-7.18.215zM1442.367 581.208l7.175-.237.073 2.217-7.175.237zM1432.884 581.504l7.172-.251.077 2.216-7.171.25zM1423.377 581.9l7.179-.3.086 2.218-7.157.289zM1413.869 582.446c2.368-.171 4.779-.289 7.179-.429l.118 2.218c-2.389.139-4.746.246-7.146.429zM1404.404 582.971l7.146-.386.139 2.207-7.179.4zM1394.93 583.42l7.17-.352.11 2.215-7.171.352zM1385.411 583.896l7.168-.364.118 2.218-7.168.364zM1375.924 584.435l7.168-.418.118 2.218-7.157.407zM1366.428 585.035l7.168-.471.139 2.207-7.157.471zM1356.942 585.73l7.157-.546.161 2.207-7.136.557zM1347.456 586.544l7.157-.632.193 2.207-7.136.632zM1337.991 587.495l7.146-.739.214 2.207-7.114.739zM1328.55 588.609c2.368-.321 4.757-.589 7.136-.868l.246 2.2c-2.368.289-4.736.557-7.1.868zM1319.097 589.892l7.125-1.007.289 2.2-7.082 1.007zM1309.698 591.412a265.4 265.4 0 0 1 7.093-1.179l.343 2.143c-2.357.354-4.7.761-7.05 1.168zM1300.332 593.177c2.346-.514 4.7-.932 7.061-1.393l.407 2.143c-2.346.45-4.693.868-7.018 1.382zM1288.95 595.254c2.336-.579 4.682-1.071 7.029-1.629l.471 2.143q-3.482.771-6.964 1.618zM1279.907 597.725c2.314-.654 4.618-1.361 6.954-1.929l.557 2.143c-2.314.568-4.586 1.264-6.879 1.907zM1270.993 600.699c2.271-.814 4.543-1.629 6.846-2.325l.664 2.143c-2.271.686-4.5 1.489-6.739 2.282zM1262.303 604.357l3.311-1.489c1.071-.482 2.239-.9 3.354-1.361l.8 2.068c-1.071.45-2.207.857-3.289 1.329l-3.214 1.457zM1254 608.754c2.143-1.211 4.179-2.421 6.364-3.482l.986 1.982c-2.143 1.071-4.168 2.218-6.214 3.407zM1246.104 613.881c1.993-1.361 3.964-2.754 6.032-3.986l1.179 1.875c-2.036 1.221-3.975 2.582-5.936 3.921zM1238.636 619.593c1.886-1.5 3.739-3.043 5.711-4.436l1.318 1.779c-1.939 1.371-3.761 2.893-5.614 4.361zM1231.629 625.884c1.768-1.65 3.493-3.343 5.357-4.886l1.446 1.682c-1.821 1.511-3.514 3.214-5.25 4.789zM1225.2 632.756l2.4-2.721c.8-.911 1.671-1.746 2.507-2.625l1.586 1.554c-.825.857-1.671 1.682-2.464 2.571l-2.349 2.653zM1219.436 640.219l2.111-2.968 2.261-2.839 1.714 1.4-2.207 2.775-2.046 2.882zM1214.529 648.286c.589-1.071 1.071-2.143 1.757-3.214l1.929-3.086 1.854 1.211-1.875 3c-.621 1.007-1.071 2.068-1.7 3.1zM1210.693 656.92a72.56 72.56 0 0 1 2.82-6.718l1.993.975a66.134 66.134 0 0 0-2.721 6.5zM1208.175 666.057l.332-1.8c.118-.6.311-1.179.461-1.768.321-1.168.621-2.357.975-3.514l2.143.675c-.343 1.125-.621 2.261-.943 3.386-.139.568-.332 1.136-.439 1.7l-.321 1.736zM1207.211 675.493v-1.821l.161-1.832c.139-1.211.15-2.432.4-3.632l2.143.321c-.225 1.157-.236 2.336-.375 3.493l-.15 1.746c-.054.589 0 1.179 0 1.757zM1207.929 684.96a12.75 12.75 0 0 1-.257-1.811l-.189-1.818a27.609 27.609 0 0 1-.236-3.643l2.207-.064a27.206 27.206 0 0 0 .236 3.493l.182 1.746a13.7 13.7 0 0 0 .2 1.736zM1210.264 694.161a55.3 55.3 0 0 1-1.907-7.061l2.143-.45a53.2 53.2 0 0 0 1.843 6.782zM1214.057 702.782l-.846-1.607a12.092 12.092 0 0 1-.782-1.607l-1.393-3.378 2.068-.793 1.35 3.214a10.835 10.835 0 0 0 .75 1.6l.814 1.564zM1218.905 710.931l-1.961-3.064a35.226 35.226 0 0 1-1.864-3.118l1.925-1.068a30.967 30.967 0 0 0 1.821 3.021l1.961 2.979zM1224.696 718.369l-1.2-1.361a19.166 19.166 0 0 1-1.071-1.436l-2.143-2.892 1.7-1.35 2.143 2.829c.364.461.7.943 1.071 1.4l1.168 1.329zM1231.125 725.248l-2.571-2.55c-.836-.868-1.607-1.8-2.421-2.7l1.661-1.468c.793.879 1.543 1.789 2.368 2.646l2.529 2.5zM1238.047 731.591l-2.721-2.379-1.361-1.189-1.3-1.275 1.532-1.6 1.264 1.243 1.339 1.168 2.689 2.346zM1245.354 737.474c-1.886-1.5-3.836-2.914-5.668-4.479l1.46-1.692c1.811 1.532 3.739 2.925 5.593 4.4zM1252.929 742.942c-1.961-1.382-3.964-2.721-5.893-4.146l1.35-1.79c1.907 1.425 3.889 2.743 5.829 4.114zM1260.814 748.055c-2.014-1.3-4.093-2.518-6.075-3.879l1.232-1.821c1.961 1.35 4.018 2.55 6.021 3.836zM1269.053 752.687c-1.071-.439-2.143-1.071-3.279-1.65a31.046 31.046 0 0 1-3.129-1.843l1.157-1.886a32.683 32.683 0 0 0 3.054 1.8l1.554.8a11.77 11.77 0 0 0 1.575.761zM1277.796 756.196c-2.25-.879-4.532-1.629-6.739-2.646l.868-2.036c2.143.986 4.414 1.736 6.621 2.593zM1286.678 759.166c-2.3-.675-4.564-1.511-6.846-2.261l.729-2.143c2.261.739 4.5 1.564 6.782 2.239zM1295.636 761.856l-3.461-.986-3.439-1.061.654-2.121 3.418 1.05 3.439.986zM1306.893 764.315c-2.314-.611-4.639-1.2-6.943-1.875l.6-2.143c2.282.675 4.6 1.264 6.911 1.875zM1316.122 766.604c-2.325-.589-4.661-1.071-6.975-1.746l.546-2.143c2.3.621 4.639 1.157 6.954 1.736zM1325.398 768.722c-2.336-.536-4.682-1.071-7.007-1.618l.514-2.143c2.314.589 4.661 1.071 6.986 1.607zM1334.695 770.701c-2.336-.5-4.693-.954-7.029-1.5l.482-2.143c2.325.546 4.671 1 7.007 1.489zM1344.038 772.531c-2.357-.461-4.714-.889-7.061-1.393l.45-2.143c2.336.514 4.682.932 7.029 1.393zM1353.404 774.199c-2.368-.4-4.725-.8-7.082-1.275l.407-2.143c2.346.471 4.7.868 7.05 1.275zM1362.791 775.719a269.106 269.106 0 0 1-7.093-1.146l.375-2.143c2.346.418 4.7.793 7.061 1.146zM1372.216 777.066q-3.568-.45-7.125-1.018l.332-2.2q3.536.567 7.082 1.018zM1381.674 778.197c-2.389-.225-4.768-.536-7.146-.857l.289-2.2c2.368.311 4.725.621 7.1.857zM1391.16 779.109c-2.389-.161-4.779-.418-7.168-.675l.236-2.207c2.368.268 4.736.514 7.114.675zM1400.688 779.73l-3.611-.171-3.589-.279.171-2.207 3.557.279 3.557.161zM1410.283 779.891c-2.389 0-4.8 0-7.2-.086l.064-2.218c2.379 0 4.757.107 7.146.086zM1419.758 779.805c-2.4 0-4.789.075-7.189.075v-2.218c2.379 0 4.768-.054 7.157-.075zM1429.265 779.591l-7.179.182-.043-2.218 7.157-.182zM1438.773 779.28l-7.179.246-.064-2.218 7.157-.246zM1448.271 778.906l-7.168.289-.086-2.207 7.168-.289zM1457.766 778.51l-7.168.311-.1-2.218 7.168-.311zM1460.009 776.181l7.172-.337.104 2.215-7.172.338zM1469.459 775.772l7.17-.347.108 2.215-7.17.347zM1478.955 775.317l7.17-.352.109 2.216-7.17.351zM1488.432 774.868l7.17-.352.109 2.216-7.17.351zM1497.988 774.36l7.17-.352.109 2.216-7.17.351zM1507.443 773.933l7.17-.347.108 2.215-7.17.347zM1516.936 773.474l7.172-.337.104 2.215-7.172.338zM1526.414 773.06l7.172-.323.1 2.216-7.172.323zM1535.901 772.65l7.173-.303.093 2.216-7.172.303zM1545.415 772.24l7.174-.28.086 2.217-7.174.28zM1562.168 773.835l-7.168.257-.075-2.218 7.168-.257zM1571.665 773.536l-7.168.225-.075-2.218 7.179-.225zM1581.151 773.279l-7.168.193-.054-2.218 7.168-.193zM1590.647 773.086l-7.168.15-.054-2.218 7.179-.15zM1600.145 772.948l-7.168.1-.043-2.218 7.179-.1zM1609.633 772.883h-7.17v-2.218c2.4 0 4.789-.054 7.189 0zM1619.117 772.915h-7.157v-2.207h7.179zM1628.603 773.066c-2.379-.075-4.768-.086-7.157-.118v-2.218c2.4 0 4.789 0 7.189.118zM1638.09 773.386c-2.389-.118-4.779-.171-7.157-.236l.054-2.218c2.4.064 4.789.118 7.189.236zM1647.554 773.825a228.13 228.13 0 0 0-7.146-.386l.1-2.207c2.4.086 4.789.225 7.179.375zM1656.988 774.532c-2.368-.182-4.736-.45-7.125-.579l.161-2.207c2.389.129 4.779.386 7.179.579zM1668.452 775.59c-2.346-.354-4.725-.568-7.082-.857l.225-2.207c2.389.3 4.789.514 7.168.879zM1677.538 777.227c-2.314-.482-4.618-.986-6.975-1.307l.343-2.143c2.389.321 4.757.836 7.125 1.329zM1686.57 779.399c-2.3-.6-4.618-1.157-6.943-1.714l.514-2.143c2.325.557 4.661 1.071 6.986 1.725zM1695.505 781.945a190.92 190.92 0 0 0-6.857-1.95l.568-2.143c2.325.611 4.639 1.286 6.932 1.982zM1704.291 784.844q-3.343-1.232-6.75-2.314l.675-2.143q3.439 1.071 6.836 2.336zM1712.874 788.301q-3.214-1.446-6.589-2.711l.793-2.068c2.25.857 4.489 1.768 6.686 2.743zM1721.187 792.311a206.718 206.718 0 0 0-6.364-3.15l.921-2.014c2.143 1.018 4.35 2.079 6.482 3.214zM1729.17 796.923c-2-1.264-4.029-2.5-6.107-3.632l1.071-1.939c2.143 1.157 4.189 2.411 6.236 3.707zM1736.713 802.271l-1.4-1.071-1.436-1.071c-.964-.686-1.918-1.393-2.925-2.025l1.232-1.843c1.071.643 1.993 1.361 2.979 2.068l1.479 1.071 1.425 1.071zM1743.712 808.086c-1.693-1.639-3.5-3.161-5.357-4.671l1.393-1.725c1.854 1.554 3.707 3.107 5.454 4.789zM1750.063 814.747l-2.336-2.657-2.475-2.529 1.554-1.575 2.539 2.593 2.411 2.721zM1755.666 822.043l-2.057-2.882c-.7-.943-1.457-1.854-2.143-2.786l1.725-1.393c.739.954 1.521 1.886 2.239 2.861l2.143 2.957zM1760.403 829.971l-1.714-3.1c-.579-1.071-1.254-2-1.864-3.011l1.864-1.189c.632 1.071 1.318 2.025 1.907 3.086l1.768 3.214zM1764.238 838.286l-1.361-3.268c-.482-1.071-1.071-2.143-1.532-3.214l1.993-.986c.514 1.071 1.071 2.143 1.564 3.279l1.393 3.354zM1767.184 847.018c-.343-1.136-.632-2.282-1.007-3.4l-1.168-3.354 2.079-.761 1.2 3.429c.386 1.146.686 2.314 1.071 3.471z" fill="#ff5f12"/><circle cx="3.857" cy="3.857" r="3.857" transform="translate(1506.692 370.146)" fill="#ef5b01"/><circle cx="3.857" cy="3.857" r="3.857" transform="translate(1505.512 369)" fill="#fff"/><circle cx="3.857" cy="3.857" r="3.857" transform="translate(1765.685 851.271)" fill="#ef5b01"/><circle cx="3.857" cy="3.857" r="3.857" transform="translate(1764.527 850.136)" fill="#fff"/><path d="M1521.621 377.561l-7.007-1.511.461-2.175 7.018 1.511zM1530.879 379.607l-6.986-1.586.482-2.164 7.007 1.586zM1540.114 381.74l-6.975-1.65.5-2.154 7 1.65zM1549.338 383.968l-6.964-1.729.525-2.154 6.975 1.725zM1558.53 386.271l-6.943-1.782.546-2.154 6.954 1.789zM1567.7 388.66l-6.921-1.854.568-2.143 6.943 1.854zM1576.848 391.147l-6.9-1.918.589-2.143 6.911 1.929zM1585.975 393.718l-6.889-1.993.611-2.132 6.9 1.993zM1595.057 396.396l-6.857-2.068.632-2.132 6.879 2.079zM1604.118 399.182a394.493 394.493 0 0 0-6.836-2.143l.654-2.143c2.293.707 4.575 1.414 6.857 2.143zM1613.125 402.097c-2.261-.75-4.521-1.532-6.8-2.25l.686-2.143c2.282.729 4.554 1.5 6.825 2.261zM1622.087 405.139l-6.761-2.357.718-2.1 6.782 2.368zM1630.984 408.343c-2.229-.857-4.479-1.65-6.707-2.475l.75-2.089c2.25.836 4.5 1.629 6.739 2.5zM1639.812 411.728a236.598 236.598 0 0 0-6.664-2.614l.793-2.068c2.25.846 4.479 1.714 6.7 2.625zM1648.561 415.307c-2.143-.921-4.371-1.907-6.589-2.775l.836-2.057c2.229.879 4.425 1.864 6.632 2.8zM1657.183 419.122c-2.143-1.071-4.286-1.971-6.493-2.968l.893-2.025c2.143 1 4.382 1.971 6.557 2.989zM1667.734 423.247l-3.161-1.639-3.214-1.554.954-1.993 3.246 1.575 3.2 1.65zM1675.867 427.714c-2.079-1.157-4.125-2.368-6.236-3.471l1.071-1.961c2.143 1.125 4.2 2.346 6.3 3.514zM1683.656 432.686c-.986-.664-1.95-1.35-2.946-1.993l-3.021-1.864 1.146-1.9 3.075 1.9c1.018.654 2 1.35 3 2.025zM1690.974 438.257q-2.679-2.314-5.55-4.371l1.286-1.811q2.957 2.143 5.711 4.5zM1697.66 444.61a88.978 88.978 0 0 0-5.089-4.95l1.489-1.639a97.852 97.852 0 0 1 5.2 5.046zM1703.766 451.5c-1.5-1.821-3.032-3.632-4.65-5.357l1.629-1.5c1.65 1.768 3.214 3.611 4.746 5.475zM1709.316 458.914q-2.021-2.925-4.221-5.721l1.746-1.361q2.229 2.85 4.286 5.818zM1714.287 466.704c-1.189-2.046-2.464-4.05-3.771-6.032l1.84-1.222c1.329 2.014 2.636 4.039 3.836 6.139zM1718.649 474.847c-1.071-2.143-2.143-4.286-3.3-6.289l1.93-1.072q1.779 3.15 3.364 6.429zM1722.334 483.147c-.868-2.207-1.768-4.393-2.775-6.536l2.014-.932c1.071 2.143 1.939 4.425 2.829 6.664zM1725.249 491.876q-.964-3.407-2.143-6.75l2.089-.75q1.243 3.407 2.218 6.9zM1727.263 500.841c-.364-2.325-.9-4.629-1.457-6.921l2.143-.557c.579 2.357 1.125 4.714 1.5 7.114zM1728.238 509.955a73.858 73.858 0 0 0-.643-7.029l2.2-.311c.343 2.4.546 4.821.664 7.254zM1727.959 519.09a57.032 57.032 0 0 0 .321-7.029h2.218a61.264 61.264 0 0 1-.332 7.286zM1726.266 528.055a53.6 53.6 0 0 0 1.446-6.879l2.143.311a60.148 60.148 0 0 1-1.5 7.157zM1723.063 536.569a50.458 50.458 0 0 0 2.6-6.514l2.143.675a54.824 54.824 0 0 1-2.711 6.8zM1718.359 544.356a49.381 49.381 0 0 0 3.75-5.925l1.95 1.071a52.385 52.385 0 0 1-3.911 6.193zM1712.359 551.224c.418-.407.846-.814 1.254-1.232l1.189-1.286c.825-.846 1.532-1.779 2.293-2.679l1.725 1.382c-.782.932-1.521 1.907-2.379 2.786l-1.232 1.339c-.429.439-.868.857-1.307 1.286zM1705.309 557.074a60.27 60.27 0 0 0 5.486-4.414l1.489 1.65a62.458 62.458 0 0 1-5.679 4.564zM1697.552 561.948c1.071-.557 2.046-1.179 3.064-1.757s1.993-1.275 2.979-1.907l1.243 1.843c-1.071.654-2.036 1.329-3.064 1.961s-2.089 1.232-3.161 1.811zM1689.238 565.92c1.071-.45 2.143-.911 3.214-1.425s2.143-1 3.214-1.564l1.007 1.971c-1.071.589-2.143 1.071-3.214 1.6s-2.207 1-3.321 1.468zM1680.591 569.129l3.364-1.136 3.321-1.254.825 2.057-3.4 1.275-3.429 1.168zM1671.699 571.674l3.45-.911 3.407-1 .654 2.121-3.471 1.018-3.493.911zM1662.656 573.632l3.493-.686 3.482-.782.5 2.154-3.525.8-3.546.7zM1651.293 574.402l3.579-.171c1.189-.064 2.314-.193 3.471-.289l.332 2.2c-1.221.1-2.475.236-3.675.3l-3.589.182zM1641.838 574.786c2.389-.1 4.779-.15 7.157-.279l.107 2.207c-2.4.129-4.789.193-7.179.289zM1632.33 575.118l7.168-.246.075 2.218-7.168.246zM1622.844 575.384l7.172-.23.07 2.216-7.171.23zM1613.329 575.687l7.176-.205.064 2.217-7.177.205zM1603.831 575.974l7.176-.204.063 2.217-7.176.204zM1594.348 576.181l7.176-.193.06 2.217-7.176.193zM1584.838 576.469l7.176-.194.06 2.217-7.176.194zM1575.349 576.676l7.177-.185.057 2.217-7.177.185zM1565.851 576.916l7.177-.185.057 2.217-7.177.185zM1557.473 575.491l7.179-.215.066 2.218-7.178.215zM1547.973 575.77l7.179-.215.066 2.218-7.178.215zM1538.483 576.017l7.179-.215.066 2.218-7.178.215zM1528.982 576.297l7.179-.215.066 2.218-7.178.215zM1518.352 578.097l7.179-.18.055 2.219-7.179.179zM1508.844 578.367l7.179-.18.055 2.219-7.179.179zM1499.376 578.554l7.179-.187.058 2.218-7.18.187zM1489.862 578.826l7.179-.187.058 2.218-7.18.187zM1480.352 579.064l7.176-.193.06 2.217-7.176.193zM1470.85 579.337l7.176-.201.062 2.217-7.176.201zM1461.362 579.589l7.176-.207.064 2.217-7.176.207zM1451.857 579.887l7.179-.215.067 2.218-7.18.215zM1442.343 580.194l7.175-.237.073 2.217-7.175.237zM1432.859 580.499l7.172-.251.077 2.216-7.171.25zM1423.354 580.883l7.168-.289.1 2.218-7.168.289zM1413.846 581.441c2.357-.182 4.779-.289 7.168-.429l.129 2.207c-2.389.15-4.746.257-7.157.429zM1404.372 581.969l7.157-.386.129 2.207-7.168.386zM1394.901 582.406l7.17-.352.11 2.215-7.171.352zM1385.389 582.895l7.168-.364.118 2.207-7.168.364zM1375.892 583.419l7.168-.407.129 2.218-7.157.407zM1366.406 584.029l7.168-.471.139 2.207-7.157.471zM1356.92 584.724l7.157-.546.161 2.207-7.146.546zM1347.434 585.538l7.157-.632.182 2.207-7.125.632zM1337.97 586.49l7.146-.739.214 2.207-7.125.739zM1328.55 587.604c2.379-.321 4.757-.589 7.146-.879l.246 2.207c-2.368.279-4.736.546-7.1.868zM1319.074 588.887l7.125-1.007.289 2.2-7.082 1.007zM1309.665 590.45c2.368-.407 4.736-.814 7.1-1.179l.343 2.2c-2.357.354-4.7.761-7.05 1.168zM1300.31 592.168c2.346-.514 4.7-.943 7.061-1.393l.407 2.143c-2.346.461-4.693.879-7.018 1.393zM1288.928 594.248c2.336-.579 4.671-1.071 7.018-1.629l.471 2.143c-2.325.514-4.639 1.071-6.954 1.618zM1279.886 596.708c2.314-.643 4.618-1.35 6.954-1.918l.557 2.143c-2.314.557-4.586 1.264-6.879 1.9zM1270.971 599.682c2.271-.814 4.543-1.618 6.846-2.325l.664 2.143c-2.271.686-4.511 1.489-6.739 2.282zM1262.282 603.288l3.311-1.479c1.071-.482 2.239-.9 3.354-1.361l.8 2.068c-1.071.45-2.207.857-3.289 1.329l-3.214 1.446zM1254 607.747c2.143-1.211 4.179-2.421 6.354-3.482l1 1.971c-2.143 1.071-4.168 2.229-6.225 3.407zM1246.082 612.917c1.982-1.361 3.964-2.754 6.032-4l1.168 1.854c-2.025 1.221-3.964 2.582-5.925 3.921zM1238.604 618.591c1.9-1.5 3.75-3.054 5.721-4.446l1.307 1.789c-1.939 1.371-3.75 2.893-5.614 4.361zM1231.607 624.868c1.768-1.639 3.493-3.332 5.357-4.875l1.443 1.68c-1.832 1.511-3.525 3.214-5.25 4.779zM1225.168 631.747l2.411-2.721c.8-.9 1.671-1.736 2.507-2.614l1.575 1.554c-.814.857-1.671 1.682-2.454 2.561l-2.346 2.657zM1219.414 639.203l2.111-2.956 2.261-2.839 1.714 1.4-2.206 2.778-2.057 2.882zM1214.507 647.27c.589-1.071 1.071-2.143 1.757-3.214l1.929-3.086 1.854 1.211-1.875 3c-.621 1-1.136 2.068-1.7 3.1zM1210.671 655.915a69.286 69.286 0 0 1 2.818-6.718l1.982.975c-.943 2.143-1.993 4.286-2.721 6.493zM1208.154 665.048l.332-1.8c.118-.6.3-1.179.45-1.768.332-1.179.632-2.357.986-3.525l2.143.686c-.343 1.071-.621 2.261-.943 3.386-.15.568-.332 1.071-.439 1.7l-.321 1.725zM1207.189 674.487v-1.836l.161-1.821c.139-1.211.15-2.443.386-3.632l2.2.321c-.236 1.146-.246 2.325-.375 3.493l-.161 1.746v1.757zM1207.928 683.955a11.338 11.338 0 0 1-.257-1.811l-.193-1.821a27.781 27.781 0 0 1-.246-3.654l2.218-.064a25.549 25.549 0 0 0 .236 3.5l.182 1.746a10.665 10.665 0 0 0 .246 1.736zM1210.243 693.154a57.106 57.106 0 0 1-1.918-7.05l2.143-.45a52.111 52.111 0 0 0 1.843 6.782zM1214.034 701.824l-.846-1.618a11.677 11.677 0 0 1-.782-1.65l-1.393-3.364 2.068-.8 1.339 3.214a12.1 12.1 0 0 0 .761 1.6l.814 1.564zM1218.879 709.929l-1.961-3.064a32.691 32.691 0 0 1-1.875-3.118l1.939-1.071a30.959 30.959 0 0 0 1.821 3.021l1.907 2.979zM1224.675 717.367l-1.2-1.361c-.4-.461-.739-.964-1.071-1.436l-2.143-2.893 1.8-1.307 2.143 2.818c.364.471.707.954 1.071 1.4l1.179 1.339zM1231.104 724.178l-2.571-2.539c-.836-.868-1.618-1.8-2.421-2.7l1.661-1.479c.782.889 1.543 1.8 2.357 2.646l2.529 2.5zM1238.025 730.575l-2.721-2.379-1.371-1.189-1.286-1.264 1.529-1.607 1.264 1.254 1.339 1.168 2.689 2.336zM1245.333 736.458c-1.886-1.489-3.836-2.9-5.679-4.468l1.425-1.7c1.811 1.543 3.729 2.936 5.593 4.414zM1252.929 741.941c-1.961-1.393-3.964-2.721-5.893-4.157l1.318-1.779c1.907 1.414 3.889 2.732 5.829 4.1zM1260.793 747.049c-2.025-1.307-4.1-2.518-6.075-3.889l1.23-1.875c1.95 1.361 4.018 2.561 6.011 3.846zM1269 751.681c-1.071-.439-2.143-1.071-3.279-1.65a32.129 32.129 0 0 1-3.129-1.843l1.157-1.9a30.679 30.679 0 0 0 3.107 1.8l1.543.814a16.319 16.319 0 0 0 1.586.761zM1277.764 755.201c-2.239-.879-4.521-1.629-6.739-2.646l.879-2.036c2.143.986 4.414 1.736 6.621 2.593zM1286.647 758.165c-2.293-.686-4.554-1.511-6.836-2.261l.729-2.143c2.261.75 4.489 1.575 6.782 2.25zM1295.614 760.838l-3.461-.986-3.439-1.061.654-2.111 3.418 1.05 3.439.975zM1306.871 763.31c-2.325-.611-4.639-1.211-6.943-1.886l.6-2.143c2.282.675 4.6 1.264 6.9 1.875zM1316.106 765.589c-2.336-.579-4.671-1.071-6.986-1.736l.557-2.143c2.3.621 4.629 1.146 6.943 1.725zM1325.372 767.717c-2.336-.546-4.682-1.071-7.007-1.618l.514-2.143c2.314.589 4.65 1.071 6.975 1.607zM1334.674 769.696c-2.346-.5-4.693-.954-7.029-1.511l.482-2.143c2.325.546 4.661 1 7 1.5zM1344.005 771.514c-2.346-.45-4.7-.879-7.05-1.382l.45-2.143c2.325.5 4.682.932 7.018 1.382zM1353.37 773.194c-2.357-.407-4.725-.8-7.071-1.275l.407-2.143c2.346.461 4.693.868 7.05 1.264zM1362.769 774.713a230.163 230.163 0 0 1-7.093-1.157l.364-2.143c2.357.429 4.7.8 7.071 1.157zM1372.2 776.05a196 196 0 0 1-7.125-1.018l.332-2.143c2.357.375 4.714.718 7.082 1.007zM1381.652 777.195c-2.389-.236-4.768-.546-7.146-.857l.289-2.207c2.357.321 4.725.632 7.1.868zM1391.138 778.106c-2.4-.161-4.779-.418-7.168-.686l.236-2.143c2.368.257 4.736.514 7.114.675zM1400.667 778.725l-3.611-.168-3.589-.279.171-2.218 3.557.279 3.557.171zM1410.207 778.885c-2.4 0-4.8 0-7.2-.086v-2.218c2.389 0 4.768.107 7.146.086zM1419.725 778.799c-2.389 0-4.789.086-7.189.086v-2.218c2.379 0 4.768-.054 7.157-.075zM1429.244 778.585l-7.179.171-.054-2.207 7.168-.182zM1438.751 778.264l-7.179.246-.075-2.218 7.168-.236zM1448.248 777.9l-7.168.289-.086-2.218 7.157-.289zM1457.745 777.494l-7.168.321-.1-2.218 7.168-.321zM1459.994 775.177l7.172-.337.104 2.215-7.172.338zM1469.431 774.758l7.17-.347.108 2.215-7.17.347zM1478.926 774.314l7.17-.352.109 2.216-7.17.351zM1488.403 773.865l7.17-.352.109 2.216-7.17.351zM1497.949 773.357l7.17-.352.109 2.216-7.17.351zM1507.426 772.92l7.17-.347.108 2.215-7.17.347zM1516.91 772.471l7.172-.337.104 2.215-7.172.338zM1526.389 772.056l7.172-.323.1 2.216-7.172.323zM1535.869 771.647l7.173-.303.093 2.216-7.172.303zM1545.395 771.225l7.174-.28.086 2.217-7.174.28zM1562.142 772.83l-7.168.246-.086-2.207 7.179-.257zM1571.631 772.53l-7.157.225-.075-2.218 7.168-.225zM1581.128 772.273l-7.168.193-.064-2.218 7.179-.193zM1590.625 772.07l-7.168.15-.054-2.207 7.179-.161zM1600.112 771.931l-7.168.107-.032-2.218 7.179-.1zM1609.609 771.877h-7.168v-2.218c2.4 0 4.789-.054 7.179 0zM1619.095 771.91h-7.168v-2.218h7.179zM1628.603 772.06c-2.389-.086-4.779-.086-7.157-.129v-2.207c2.4 0 4.789 0 7.189.118zM1638.057 772.317c-2.379-.118-4.768-.171-7.157-.236l.064-2.218c2.389.064 4.789.118 7.189.236zM1647.522 772.82a227.33 227.33 0 0 0-7.136-.386l.1-2.218c2.389.086 4.789.225 7.179.386zM1656.987 773.526c-2.379-.193-4.746-.45-7.125-.579l.15-2.207c2.4.129 4.789.386 7.179.579zM1668.431 774.585c-2.346-.354-4.725-.568-7.082-.868l.225-2.2c2.389.289 4.779.514 7.168.868zM1677.517 776.21c-2.314-.482-4.629-.986-6.986-1.3l.354-2.2c2.389.321 4.757.836 7.125 1.339zM1686.549 778.394c-2.3-.6-4.618-1.157-6.943-1.714l.514-2.143c2.325.557 4.661 1.071 6.986 1.714zM1695.484 780.875a191.484 191.484 0 0 0-6.868-1.95l.58-2.143c2.325.611 4.629 1.286 6.932 1.971zM1704.237 783.828a156.217 156.217 0 0 0-6.739-2.3l.675-2.143q3.439 1.071 6.836 2.336zM1712.809 787.295q-3.214-1.446-6.589-2.711l.793-2.068q3.375 1.286 6.686 2.754zM1721.166 791.311a221.042 221.042 0 0 0-6.375-3.161l.932-2.014c2.143 1.071 4.35 2.089 6.429 3.214zM1729.148 795.949c-2-1.264-4.029-2.5-6.107-3.632l1.071-1.939c2.143 1.157 4.189 2.411 6.225 3.7zM1736.692 801.202l-1.382-1.071-1.446-1.071c-.964-.675-1.907-1.382-2.914-2.014l1.232-1.843c1.018.643 1.993 1.361 2.979 2.068l1.479 1.071 1.425 1.071zM1743.688 807.074c-1.7-1.639-3.5-3.161-5.357-4.682l1.4-1.714c1.854 1.543 3.707 3.107 5.443 4.789zM1750.041 813.738l-2.346-2.657-2.475-2.539 1.564-1.575 2.539 2.6 2.4 2.721zM1755.666 821.036l-2.079-2.85c-.707-.954-1.457-1.854-2.143-2.786l1.714-1.393c.75.954 1.532 1.875 2.25 2.85l2.143 2.968zM1760.381 828.9l-1.714-3.1c-.579-1.071-1.254-2-1.864-3.011l1.854-1.2c.643 1.071 1.329 2.036 1.918 3.086l1.768 3.214zM1764.238 837.279l-1.361-3.268c-.482-1.071-1.071-2.143-1.532-3.214l1.982-.986c.525 1.071 1.071 2.143 1.575 3.279l1.393 3.354zM1767.163 846.043c-.343-1.071-.632-2.271-1.007-3.4l-1.168-3.343 2.079-.761 1.2 3.418c.386 1.146.675 2.325 1.071 3.482z" fill="#fffefc"/><rect width="83.636" height="75.621" rx="3.16" transform="translate(1184.893 645.154)" fill="#ea6800"/><path d="M1184.893 645.09h17.679v75.7h-14.047a3.632 3.632 0 0 1-3.632-3.64z" fill="#c85900"/><path fill="#fff" d="M1191.343 651.583h70.746v64.35h-70.746z"/><path fill="#c85900" d="M1184.893 645.112h18.782v53.775h-18.782z"/><path d="M1203.675 698.919L1179 674.244v-69.889l24.675 24.686z" fill="#ffce91"/><path d="M1240.468 651.624v21.514l6.9-4.3 5.9 4.3v-21.514z" fill="#ff8102"/><path fill="#ffe4c9" d="M1191.343 704.552h64.082v2.229h-64.082zM1191.343 710.071h64.082v3.064h-64.082z"/><path d="M1636.928 763.024l-7.307 9.7 21.771 30.011 21.2-29.6-6.536-10.1z" fill="#ffdfbd"/><path d="M1666.163 763.061l-7.254 10.114h13.789l-6.535-10.114M1636.469 763.061l-7.307 9.7 13.125.418-5.818-10.114" fill="#ffb240"/><path d="M1672.677 773.135l-21.2 29.593 7.414-29.593z" fill="#ff9710"/><path d="M1642.58 773.135h16.04l-7.329 29.593z" fill="#ffb240"/><path d="M1642.58 773.175h16.04l-7.393-10.114z" fill="#ffdfbd"/><path d="M1636.627 763.061l5.818 10.114 8.646-10.114zM1651.371 763.061l7.414 10.114 7.256-10.114z" fill="#ffce91"/><path fill="#b9541d" d="M1686.433 790.311l81.974-81.974 2.91 2.909-81.975 81.974z"/><path d="M1688.477 784.519l6.064-6.064a44.38 44.38 0 0 0 63.246-62.274c-.159-.162-.321-.321-.48-.48l6.054-6.064a52.95 52.95 0 1 1-74.619 75.146l-.264-.264z" fill="#ee6a00"/><path d="M1721.402 798.771v7.779l-21.868 6.321v3.729h54.536v-3.418l-22.393-6.632.1-7.779z" fill="#ee6a00"/><path d="M1764.034 747.436a37.779 37.779 0 1 1-16.361-31.071 37.779 37.779 0 0 1 16.361 31.071z" fill="#ffa735"/><path d="M1754.487 772.54a37.8 37.8 0 0 1-37.854 11.432c-2.143-1.329-2.046-1.821-2.143-2.989a4.031 4.031 0 0 0-1.607-2.475c-6.954-3.632-4.779-12.75-5.5-13.929s-4.564.836-6.225 1.071-2.593-2.7-1.554-4.286 9.439-1.554 8.089-3.418-.107-8.818-.107-8.818c.621-13.929 16.907-15.343 13.789-21.771-2.979-6.15-22.1-3.086-25.639-2.143a37.768 37.768 0 0 1 51.964-8.9c-1.071.225-.814.5-.814.5-7.982 4.286-12.343 12.964-9.857 17.421s9.643-1.971 14 .311a5.937 5.937 0 0 1 3.321 6.846c-.107.718-2.593.514-2.593.514-26.786 2.282-23.336 16.586-23.336 16.586 1.864 20.946 14.1 10.061 15.761 7.361s.311-10.157 1.768-12.129 7.875-4.414 8.186 2.432-3.621 12.289-3 14.475c.351 1.341 2.087 1.78 3.351 1.909z" fill="#ffe7bf"/><path d="M1741.245 712.827a3.567 3.567 0 0 1-4.1.086c-16.521-6.771-12.021 5.871-12.161 6.5s-.964 5.593-5.743 2-16.243-1.736-17.271-2.5v-.343a37.777 37.777 0 0 1 39.275-5.743z" fill="#fff"/><path d="M1334.687 609.835h-2.712a2.636 2.636 0 0 1-2.636-2.636v-26.264h-2.143a2.143 2.143 0 0 1-2.143-2.143v-20.357h3.214l1.071 15.75h2.079l.279-15.75h3.107v15.75h1.864l2.143-15.75h2.282v20.261a2.143 2.143 0 0 1-2.143 2.143h-2.143v26.786a2.143 2.143 0 0 1-2.077 2.206z" fill="#ffe3c3"/><path d="M1329.341 596.616h7.5v11.036a2.143 2.143 0 0 1-2.143 2.143h-3.214a2.143 2.143 0 0 1-2.143-2.143z" fill="#ea6800"/><path d="M1359.04 563.031v44.582a2.282 2.282 0 0 1-2.282 2.282h-2.85a2.379 2.379 0 0 1-2.379-2.379v-15.977a4.286 4.286 0 0 0-4.286-4.286v-28.754h7.286a4.532 4.532 0 0 1 4.532 4.532z" fill="#fff9f2"/><path d="M1359.04 563.039v34.446l-6.739-.225 3.69-38.507a4.52 4.52 0 0 1 3.054 4.286z" fill="#ffe3c3"/><path d="M1351.53 596.691h7.5v11.036a2.143 2.143 0 0 1-2.143 2.143h-3.214a2.143 2.143 0 0 1-2.143-2.143z" fill="#ea6800"/><path d="M1701.433 461.95l-7.757 35.839 17.057-4.189 22.661 9.686 13.479-4.05 5.507-37.061-13.564 4.093-21.839-8.958z" fill="#ffcd89"/><path d="M1702.342 463.49l14.3-4.146 21.932 8.968 11.712-3.836-5.132 33.075-11.507 3.621-22.918-9.739-14.775 3.986z" fill="#fffed4"/><path d="M1716.645 459.344l-5.914 32.089 22.918 9.739 4.929-32.861z" fill="#ffe086"/><path d="M1727.734 488.108l7.532 2.936 7.607-2.829 2.486-16.1M1708.095 464.656l-4.146 20.111 8.85-2.486 10.725 4.189M1739.96 476.922h4.811M1719.913 469.119l-3.364 14.764" fill="none" stroke="#ffbe55" stroke-miterlimit="10"/><circle cx="1.832" cy="1.832" r="1.832" transform="translate(1723.791 485.394)" fill="#2091e9"/><path d="M1738.449 469.275l-4.393 4.286 1.329-8.754 3.429 1.607z" fill="#ffb240"/><path d="M1742.487 451.862c0 4.65-8.432 21.7-8.432 21.7s-8.389-17.047-8.389-21.7a8.432 8.432 0 0 1 16.864-.018v.018z" fill="#ff5f12"/><circle cx="4.918" cy="4.918" r="4.918" transform="translate(1729.138 446.679)" fill="#fff"/><path d="M1731.763 549.276a26.34 26.34 0 0 1-.8 6.546 27.139 27.139 0 0 1-52.682 0 26.346 26.346 0 0 1-.814-6.546 27.15 27.15 0 0 1 54.3-.029z" fill="#e67e00"/><ellipse cx="26.346" cy="20.604" rx="26.346" ry="20.604" transform="translate(1678.266 535.205)" fill="#ff8d05"/><ellipse cx="11.282" cy="8.721" rx="11.282" ry="8.721" transform="rotate(-14.65 3009.411 -6315.928)" fill="#ff9919"/><path fill="#ddedf9" d="M1721.667 568.991l5.147-6.115 8.361 7.039-5.147 6.114z"/><path d="M1733.151 566.341l17.633 14.859a1.607 1.607 0 0 1 .193 2.264l-2.45 2.909-20.093-16.932 2.444-2.9a1.618 1.618 0 0 1 2.271-.2z" fill="#ff982c"/><path d="M1728.421 569.444l20.1 16.936-2.451 2.909a1.607 1.607 0 0 1-2.264.194l-17.633-14.859a1.607 1.607 0 0 1-.193-2.264l2.45-2.909z" fill="#ea6800"/><path d="M1704.612 527.483a21.793 21.793 0 1 1-.021 0m0-5.357a27.15 27.15 0 1 0 27.15 27.15 27.14 27.14 0 0 0-27.129-27.15z" fill="#fff"/><path fill="none" d="M1738.866 645.69h3.268v17.518h-3.268zM1713.709 645.69h3.268v17.518h-3.268zM1751.456 645.69h3.268v17.518h-3.268zM1726.288 645.69h3.268v17.518h-3.268z"/><path d="M1754.713 663.2h-3.214v-17.518h-9.321V663.2h-3.214v-17.518h-9.311V663.2h-3.268v-17.518h-9.311V663.2h-3.268v-17.518h-12.782v14.614a12.279 12.279 0 0 0 12.267 12.279h41.787a12.28 12.28 0 0 0 12.375-12.182v-14.711h-12.74z" fill="#ffa735"/><path fill="#ec6700" d="M1729.556 638.275h9.311v7.436h-9.311zM1701.034 638.275h12.675v7.436h-12.675zM1716.977 638.275h9.311v7.436h-9.311zM1754.713 638.275h12.675v7.436h-12.675zM1742.134 638.275h9.311v7.436h-9.311z"/><path fill="#ffa735" d="M1696.781 617.842h74.861v20.464h-74.861z"/><path d="M1727.595 624.161l14.218-22.258a.513.513 0 0 1 .709-.156l8.226 5.25a.514.514 0 0 1 .156.71l-14.25 22.3a5.219 5.219 0 0 1-7.206 1.588l-.243-.155a5.271 5.271 0 0 1-1.607-7.28z" fill="#3c3835"/><circle cx="3.407" cy="3.407" r="3.407" transform="translate(1728.859 623.393)" fill="#efe8e2"/><path d="M1372.833 647.622l-48.772 26.657-11.389-20.839 44.764-24.461 6.054 1.554z" fill="#fffb83"/><path d="M1335.054 661.97a9.858 9.858 0 0 0 0-3.675l2.143-.279a13.043 13.043 0 0 1 .118 3.921zm.525-14.829l-6.139 3.364-.8-1.479 6.139-3.354-.418-.761 2.089-1.136.418.761 6.311-3.461.8 1.479-6.311 3.45.375.7 5.164-2.818 2.571 4.693-1.682.911a18.324 18.324 0 0 1 4.039.354l-.846 1.779c-.343-.1-.739-.171-1.179-.268l-4.757 2.754a12.162 12.162 0 0 1 2.871.429l-.782 1.832a14.305 14.305 0 0 0-3.589-.579l.429-1.146c-2.432 1.371-4.682 2.646-6.429 3.621l-.943-1.543a424.915 424.915 0 0 0 6.075-3.321l-.493-.889-5.121 2.807-2.571-4.693 5.132-2.807zm-1.854 4.286l3.214-1.768-.4-.729-3.214 1.768zm4.2 0l-.4-.729-3.214 1.768.4.729zm6.707 4.789c.75-.407.793-.675.236-1.9a7.629 7.629 0 0 0 2.068-.364c.761 1.961.461 2.732-1.3 3.7l-3.311 1.8c-2.346 1.286-3.214 1.157-4.05-.375l-.986-1.811 1.993-1.071.986 1.789c.225.429.439.407 1.414-.129zm-5.989-8.421l.4.729 3.214-1.725-.4-.729zm1.361 2.5l3.214-1.736-.407-.729-3.161 1.736zm3.214.825h-1l.5-.889-2.143 1.146.482.889zm4.018.643a10.806 10.806 0 0 1 3.45 2.143l-1.554 1.575a11.615 11.615 0 0 0-3.354-2.229z" fill="#ff7c2c"/><path d="M1357.436 629.012l2.389 4.361 3.664-2.807z" fill="#ffbe55"/><g transform="translate(1300.954 696.882)"><rect width="43.039" height="43.039" rx="2.25" transform="rotate(-66.485 32.667 18.044)" fill="#ff9d52"/><rect width="43.039" height="43.039" rx="2.25" transform="rotate(-66.485 30.107 19.733)" fill="#ff6806"/><path d="M54.604 16.259a2.238 2.238 0 0 1 1.169 2.943L40.387 54.559a2.229 2.229 0 0 1-2.926 1.172h-.01L2.094 40.345a2.239 2.239 0 0 1-1.157-2.946" fill="#ffae6f"/><path d="M46.671 40.108l-6.289 14.454a2.229 2.229 0 0 1-2.926 1.172h-.01l-15.139-6.589" fill="#ffdac0"/><path d="M18.808 20.955l22.5 9.782c.579.825.375 1.3-.632 1.436l-4.8-2.089-1.875 4.286 7.179 3.129c.589.825.375 1.3-.621 1.436l-7.179-3.129-3.021 6.943q-.911 2.743-3.054 1.821a11.791 11.791 0 0 1-5.089-3.354c-.3-1.071.075-1.479 1.071-1.221 3.268 2.936 5.143 3.654 5.6 2.143l3.021-6.943q-11.786 3.439-21.246.439-1.221-1.071.386-1.543 7.618 2.744 18.707.171l-9.814-4.286q-3.214-1.071-1.693-3.289l2.036-3.386-2.143-.932c-.554-.804-.34-1.286.667-1.414zm16.371-6.257a13.916 13.916 0 0 1 .429 3.6l8.85 3.857q3.825 1.651-1.746 6.632c-1.243.225-1.65-.139-1.232-1.071q4.286-3.214 1.639-4.4l-19.382-8.432a1.821 1.821 0 0 0-2.515.559l-.025.041-1.393 3.086c-.825.589-1.307.375-1.436-.632l1.554-3.589q1.071-2.4 3.921-1.136l10.039 4.361a9.93 9.93 0 0 0-.257-2.668c.387-.797.89-.873 1.554-.209zm-7.446 2.743q1.639.149.771 1.479a16.937 16.937 0 0 1-7.157 1.436c-1.189-.332-1.339-.868-.439-1.618a14.742 14.742 0 0 0 6.825-1.298zm6.718 11.979l-12.686-5.518-1.929 3.15c-.193.868.225 1.425 1.254 1.682l11.486 4.993zm2.368-8.068q2.143 2.925 3.943 5.979c0 .932-.514 1.2-1.479.782a62.407 62.407 0 0 0-4.071-6.321c.257-.943.793-1.136 1.607-.4z" fill="#ff6806" stroke="#ff6806" stroke-miterlimit="10"/><path d="M17.426 20.356l22.5 9.782c.579.825.375 1.3-.632 1.436l-4.779-2.089-1.875 4.286 7.179 3.129c.589.825.375 1.3-.621 1.436l-7.179-3.129-3.021 6.943q-.9 2.732-3.054 1.8a11.9 11.9 0 0 1-5.089-3.354c-.289-1.071.075-1.479 1.071-1.232 3.268 2.946 5.143 3.664 5.6 2.143l3.021-6.943q-11.786 3.429-21.246.439-1.221-1.071.386-1.543 7.618 2.744 18.707.171l-9.814-4.286q-3.214-1.071-1.693-3.289l2.036-3.386-2.143-.932c-.576-.771-.362-1.253.646-1.382zm16.371-6.257a13.917 13.917 0 0 1 .429 3.6l8.85 3.857q3.825 1.651-1.746 6.632c-1.243.225-1.65-.15-1.232-1.071q4.286-3.214 1.639-4.4l-19.382-8.432a1.821 1.821 0 0 0-2.515.559l-.025.041-1.35 3.107c-.825.589-1.307.386-1.436-.621l1.564-3.589c.686-1.6 1.993-1.971 3.911-1.146l10.039 4.371a9.93 9.93 0 0 0-.257-2.668c.375-.829.847-.904 1.511-.24zm-7.446 2.743c1.071.1 1.35.589.782 1.479a16.866 16.866 0 0 1-7.168 1.425c-1.189-.321-1.339-.857-.439-1.607a14.743 14.743 0 0 0 6.825-1.297zm6.718 12.021l-12.686-5.518-1.929 3.15c-.193.857.225 1.425 1.254 1.682l11.486 4.993zm2.368-8.068q2.143 2.925 3.943 5.979c0 .932-.514 1.2-1.479.782a63.687 63.687 0 0 0-4.071-6.332c.257-1.018.793-1.168 1.607-.375z" fill="#fff" stroke="#fff" stroke-miterlimit="10"/></g><g transform="translate(1279.16 426.686)"><path d="M98.261 25.651a22.736 22.736 0 0 0-41.046-.075H16.307A16.361 16.361 0 0 0 0 41.883a16.361 16.361 0 0 0 16.307 16.318h80.464a16.37 16.37 0 0 0 16.318-16.318 16.361 16.361 0 0 0-14.828-16.232z" fill="#ffddb9"/><circle cx="25.232" cy="25.232" r="25.232" transform="translate(16.929)" fill="#fff3e2"/><path d="M17.732 65.439c1.757-1.757 8.207-1.854 8.207-1.854s-.1 6.429-1.854 8.207a4.493 4.493 0 0 1-6.354-6.354zM31.865 65.696c1.757-1.757 8.218-1.854 8.218-1.854s-.107 6.429-1.864 8.207a4.493 4.493 0 0 1-6.354-6.354zM46.007 65.953c1.8-1.7 8.229-1.854 8.229-1.854s-.1 6.429-1.854 8.207a4.493 4.493 0 0 1-6.354-6.354zM21.932 78.427c1.757-1.746 8.207-1.854 8.207-1.854s-.1 6.429-1.854 8.218a4.5 4.5 0 0 1-6.354-6.364zM36.022 78.693c1.757-1.757 8.218-1.864 8.218-1.864s-.107 6.429-1.864 8.218a4.493 4.493 0 1 1-6.354-6.354zM50.207 78.95c1.746-1.757 8.207-1.864 8.207-1.864s-.107 6.429-1.854 8.218a4.493 4.493 0 1 1-6.354-6.354zM60.142 65.953c1.757-1.746 8.207-1.854 8.207-1.854s-.1 6.429-1.854 8.207a4.493 4.493 0 1 1-6.354-6.354z" fill="#ffddb9"/></g><path d="M1504.076 664.272l1.725-2.368a6.239 6.239 0 0 0 3.857 1.575c1.436 0 2.079-.621 2.079-1.521 0-1.071-1.489-1.564-3.011-2.143-1.821-.686-3.932-1.8-3.932-4.189 0-2.593 2.143-4.425 5.357-4.425a8.078 8.078 0 0 1 4.918 1.779l-1.7 2.293a5.479 5.479 0 0 0-3.107-1.243c-1.286 0-1.907.568-1.907 1.393 0 1.071 1.414 1.436 2.936 2 1.907.718 4.007 1.671 4.007 4.35s-1.971 4.554-5.732 4.554a9.1 9.1 0 0 1-5.49-2.055zM1518.539 651.523h3.09l.257 1.929h.107a6.034 6.034 0 0 1 4.425-2.293 3.923 3.923 0 0 1 3.954 2.529c1.318-1.393 2.7-2.529 4.575-2.529 3.064 0 4.479 2.143 4.479 5.786v8.979h-3.787v-8.507c0-2.218-.643-3.011-2-3.011a4.178 4.178 0 0 0-2.775 1.618v9.9h-3.782v-8.507c0-2.218-.643-3.011-2-3.011a4.2 4.2 0 0 0-2.786 1.618v9.9h-3.75zM1543.401 663.804a2.373 2.373 0 1 1 0 .088.794.794 0 0 1 0-.088zM1550.983 658.744a7.19 7.19 0 0 1 6.78-7.577c.19-.01.38-.013.57-.009a6.282 6.282 0 0 1 4.189 1.6l-1.8 2.443a3.3 3.3 0 0 0-2.207-.954c-2.143 0-3.675 1.779-3.675 4.5s1.489 4.457 3.568 4.457a4.5 4.5 0 0 0 2.807-1.157l1.489 2.486a7.127 7.127 0 0 1-4.7 1.757c-3.989-.003-7.021-2.792-7.021-7.546zM1565.721 651.523h3.09l.257 1.907h.1a6.63 6.63 0 0 1 4.682-2.271c3.107 0 4.446 2.143 4.446 5.786v8.979h-3.785v-8.507c0-2.218-.611-3.011-2.025-3.011-1.189 0-1.929.568-3.011 1.618v9.9h-3.75z" fill="#f08300"/><g transform="translate(1340.371 498.986)"><path d="M90.343 179.914l-11.239 23.571s13.393 15.6 17.357 21.043c9.643 13.275 26.4 29.357 36.354 53.571l82.746-12.739z" fill="#d8772e"/><path d="M133.136 278.282l106.757-75.525 42.364 53.893-5.186 11.732-60.439 9.9z" fill="#ffbf86"/><g transform="translate(91.414)"><rect width="164.239" height="267.921" rx="13.16" fill="#0a2933"/><rect width="132.718" height="213.129" rx="3.07" transform="translate(15.75 20.379)" fill="#fff"/><path d="M67.179 6.846H97.04a3.525 3.525 0 0 1 3.525 3.53 3.525 3.525 0 0 1-3.525 3.525H67.179a3.525 3.525 0 0 1-3.525-3.525 3.525 3.525 0 0 1 3.525-3.525z" fill="#2c5664"/><ellipse cx="26.132" cy="9.643" rx="26.132" ry="9.643" transform="translate(57.021 242.004)" fill="#2c5664"/></g><path d="M126.846 141.575a46.684 46.684 0 0 1 15.442-34.692 2.628 2.628 0 0 1-.6.667 22.32 22.32 0 0 0 .129 2.539c.364 2.357 0 4.821 1.071 7.071a.911.911 0 0 0 .878-.333 2.786 2.786 0 0 0-.255-.61 17.323 17.323 0 0 1-.515-6.589c.107-1.714 1.071-2.143 2.54-1.157a15.943 15.943 0 0 0 6.932 2.529 18.744 18.744 0 0 0 9.35-1.55 10.59 10.59 0 0 0 4.736-4.35c.236-.364.461-.739.686-1.125a59.443 59.443 0 0 0 3.364-7.939 6.657 6.657 0 0 1 .471-.964 2.367 2.367 0 0 1 2.346-1.311 2.6 2.6 0 0 1 2.143 1.289 5.59 5.59 0 0 1 .546 1.232 51.619 51.619 0 0 0 3.136 7.604c.2.375.408.739.632 1.071 2.85 4.5 7.779 6.6 13.682 5.979l.889-.1c2.925-.375 5.668-1.124 7.714-3.546a1.318 1.318 0 0 1 1.746-.449 1.455 1.455 0 0 1 .589 1.436c-.311 2.786-.182 5.614-.835 8.367a6.645 6.645 0 0 0-.2 1.014 1.071 1.071 0 0 0 .99.252l1.079-10.07c-.193-.718-1.307-.9-1.511-1.639a46.69 46.69 0 1 1-77.175 35.374zm76.479-22.225v2.143a112.9 112.9 0 0 0 .521 24.425 171.455 171.455 0 0 1 1.317 15.3 37.215 37.215 0 0 1-8.917 9.912 37.293 37.293 0 0 0 7.13-51.837v.064a37.471 37.471 0 0 0-7.854-7.779l-.03.006a37.486 37.486 0 0 1 7.83 7.761zm-59.54-2.329v2.143a37.266 37.266 0 0 0-1.739 42.36c.363-2.875.409-5.77.728-8.654.536-4.778.986-9.611 1.468-14.42a63.75 63.75 0 0 0 .054-9.8c-.193-3.13-.5-6.246-.568-9.375l.054-.072v-2.063a1.373 1.373 0 0 0 0-.171.319.319 0 0 1 .003.052zm15.375 15.172c-.739 1.757.782 2.829 1.918 3.9a3.857 3.857 0 0 0 .654.429 24.643 24.643 0 0 0 12.407 3.418c4.436-.471 9.311-.964 12.857-5.025.75-.868 1.746-1.854.964-3.064s-2.143-1.179-3.386-.9c-2.1.482-4.2.943-6.268 1.554a16.071 16.071 0 0 1-10.179-.407 18.294 18.294 0 0 0-4.9-1.339c-.453-.03-.918-.07-1.368-.07a2.551 2.551 0 0 0-2.699 1.504zm9.1-8.571c1.48.771 3.439.579 4.511 2.143a.516.516 0 0 0 .086.086.429.429 0 0 0 .6-.086c1.125-1.575 3.054-1.371 4.521-2.143a7.337 7.337 0 0 0 4.1-4.35c-1.339.868-2.336 2.121-3.761 2.829-2.571 1.275-4.221.439-4.575-2.379s.386-5.132 3-6.7a2.62 2.62 0 0 0 1.511-3.214c-.557-1.425-1.843-1.758-3.214-1.758h-3.343c-1.532-.021-2.968.364-3.5 1.907s.589 2.507 1.661 3.214c2.571 1.7 2.946 4.168 2.571 6.9-.321 2.271-1.736 3.086-3.932 2.271v.043c-1.7-.621-2.882-1.971-4.318-3.107.554 2.202 2.204 3.372 4.079 4.343zm16.325-13.126a18.273 18.273 0 0 0 3.564 1.1 18.274 18.274 0 0 1-3.51-1.091 13.339 13.339 0 0 1-6.011-5.733l-.053-.008a13.342 13.342 0 0 0 6.01 5.73zM204.375 55.414a5.592 5.592 0 0 0-4.029-3.568h-1.575c-2.218.5-2.668 2.218-2.818 4.136a53.036 53.036 0 0 1-4.071 16.875c-.364.857-.611 2.014-2.046 1.479s-1.95-1.371-1.446-2.839a15.147 15.147 0 0 0 .986-4.961c0-.75-.1-1.511-.889-1.811s-1.211.225-1.693.707a9.544 9.544 0 0 1-2.839 2.036c-.139-1.35.064-2.518-.075-3.686-.075-.7-.279-1.318-1-1.543a1.511 1.511 0 0 0-1.7.7c-.611.771-1.168 1.575-1.789 2.336a15.371 15.371 0 0 1-5.357 4.168c-.546-1.007-.236-1.939-.343-2.829-.075-.729-.075-1.521-.857-1.843s-1.339.2-1.832.771c-3.557 4.114-8.282 6.493-13.05 8.839-1.339.664-2.089.364-2.539-.986-.75-2.229-1.521-4.446-2.143-6.707a91.828 91.828 0 0 1-1.939-11.571c-.257-1.693-.986-2.946-2.818-3.214h-1.179c-1.5.429-3 .782-3.782 2.421-3.075 6.429-4.468 12.986-3.1 20.154.921 4.811 4.425 8.271 5.914 12.718 8.668-2.2 16.832-1.307 24.354 3.857 2.068 1.425 3.407 1.286 5.357-.2 5.732-4.286 12.279-5.2 19.168-4.532 2 .193 3.986.654 5.979 1 .3-2.839 2.271-4.843 3.6-7.168a14.044 14.044 0 0 0 .664-1.414c3.322-7.993 2.369-15.707-1.113-23.325zm-53.571 23.775c-2.529 2.282-2.143 2.679-3.761-.675a22.856 22.856 0 0 1-2.507-11.1c-.354-3.3 1.018-6.482 2.539-9.643.182-.375.332-.986.911-.825s.493.729.482 1.179c-.086 2.593-.557 5.143-.086 7.789a24.811 24.811 0 0 0 3.075 9.214c1.029 1.671.8 2.764-.611 4.071zm48.7.964c-.407.8-.814 1.243-1.511.268a2.194 2.194 0 0 0-.257-.289c-2.829-2.9-2.829-2.9-1.071-6.536a26.344 26.344 0 0 0 2.336-14.314 7.508 7.508 0 0 1-.139-.964c0-.461.1-.964.643-1.071s.675.311.836.664a23.022 23.022 0 0 1 2.689 10.425 30.178 30.178 0 0 1-3.482 11.818z" fill="#ef8200"/><path d="M186.996 134.914c-3.546 4.061-8.421 4.554-12.857 5.025a24.643 24.643 0 0 1-12.407-3.418 3.817 3.817 0 0 1-.654-.429c-1.136-1.071-2.657-2.143-1.918-3.9s2.475-1.543 4.071-1.436a18.322 18.322 0 0 1 4.9 1.339 16.072 16.072 0 0 0 10.179.407c2.068-.611 4.168-1.071 6.268-1.554 1.243-.279 2.6-.311 3.386.9s-.218 2.198-.968 3.066z" fill="#ea7813"/><path d="M182.089 119.357a7.337 7.337 0 0 1-4.1 4.35c-1.468.771-3.4.568-4.521 2.143a.429.429 0 0 1-.6.086.465.465 0 0 1-.086-.086c-1.071-1.564-3.032-1.371-4.511-2.143-1.875-.975-3.525-2.143-4.082-4.339 1.425 1.071 2.6 2.443 4.286 3.064 2.2.814 3.611 0 3.932-2.271.375-2.732 0-5.2-2.571-6.9-1.071-.707-2.2-1.671-1.661-3.214s1.971-1.929 3.5-1.907h3.343c1.371 0 2.657.332 3.214 1.757a2.62 2.62 0 0 1-1.511 3.214c-2.614 1.564-3.354 3.879-3 6.7s2 3.654 4.575 2.379c1.459-.712 2.453-1.961 3.793-2.833z" fill="#fefdfd"/><path d="M207.514 94.596c-1.071.268-1.3 1.146-1.371 2.143a22.354 22.354 0 0 1-1.971 8.507 1.306 1.306 0 0 0-.161.964c.2.739 1.318.921 1.511 1.639l-1.071 10.071a1.071 1.071 0 0 1-1-.257c-.321-.343-.429-.932-.707-1.329a40.571 40.571 0 0 0 .75-9.268 11.617 11.617 0 0 1-6.986 4.286l-1 .171a18.273 18.273 0 0 1-10.886-1.071 13.338 13.338 0 0 1-6.011-5.732 40.492 40.492 0 0 1-2.261-4.757c-.493-1.2-.814-2.486-1.264-3.707a4.458 4.458 0 0 0-.675-1.307 1.489 1.489 0 0 0-1.071-.536 1.382 1.382 0 0 0-1.232.546 4.662 4.662 0 0 0-.6 1.2c-1.007 2.475-1.907 4.993-3.021 7.436-.193.418-.4.825-.611 1.211-3.536 6.214-10.457 7.821-16.436 6.857a19.137 19.137 0 0 1-5.046-1.543 16.067 16.067 0 0 1-2.389-1.779 23.429 23.429 0 0 0 .171 7.5 3.475 3.475 0 0 1-.4.954.91.91 0 0 1-.9.364c-1.071-2.25-.675-4.714-1.071-7.071a22.341 22.341 0 0 1-.129-2.539 2.627 2.627 0 0 0 .6-.664 2.143 2.143 0 0 0-.075-2.143 19.584 19.584 0 0 1-1.554-7.629c0-1.211-.279-2.229-1.575-2.614s-.761-1.339-.836-2.143c-.075-.954.632-.986 1.307-1.018a2.143 2.143 0 0 0 1.907-.814 9.107 9.107 0 0 1 4.875-3.386c8.668-2.2 16.832-1.307 24.354 3.857 2.068 1.425 3.407 1.286 5.357-.2 5.732-4.286 12.279-5.2 19.168-4.532 2 .193 3.986.654 5.979 1 1.5.986 3.214 1.725 4.179 3.354a1.963 1.963 0 0 0 1.564.7c.654.1 1.575-.161 1.586.954.106.932.395 1.929-.998 2.325z" fill="#c35d05"/><path d="M191.473 89.142a31.3 31.3 0 0 1 7.2.771c3.15.857 4.286 2.336 4.393 5.625a18.131 18.131 0 0 1-.493 4.864c-1.071 4.6-3.289 8.089-8.475 8.764-5.357.7-10.2 0-13.329-5.164a19.456 19.456 0 0 1-2.7-6.9 4.887 4.887 0 0 1 2.025-5.132c3.42-2.592 7.352-2.839 11.379-2.828zM155.132 89.154c3.707-.075 7.3.321 10.554 2.357a4.917 4.917 0 0 1 2.55 5.593 17.91 17.91 0 0 1-4.286 8.914c-5.668 6.279-17 3.857-19.6-4.146a18.653 18.653 0 0 1-.911-6.182c.064-3.536 1.371-5.121 4.811-5.893a32.441 32.441 0 0 1 6.879-.643z" fill="#feedd7"/><path d="M203.079 68.333a30.178 30.178 0 0 1-3.536 11.786c-.407.8-.814 1.243-1.511.268a2.2 2.2 0 0 0-.257-.289c-2.829-2.9-2.829-2.9-1.071-6.536a26.345 26.345 0 0 0 2.336-14.314 7.492 7.492 0 0 1-.139-.964c0-.461.1-.964.643-1.071s.675.311.836.664a23.017 23.017 0 0 1 2.699 10.456zM150.842 79.199c-2.529 2.282-2.143 2.679-3.761-.675a22.864 22.864 0 0 1-2.55-11.111c-.354-3.3 1.018-6.482 2.539-9.643.182-.375.332-.986.911-.825s.493.729.482 1.179c-.086 2.593-.557 5.143-.086 7.789a24.81 24.81 0 0 0 3.075 9.214c1.034 1.672.809 2.765-.61 4.072z" fill="#cd6404"/><path d="M26.989 186.761L90 106.254a47.475 47.475 0 0 1 15.2 32.946c1.071 21.5-25.982 63.911-25.982 63.911s50.357 56.679 53.914 75.182l88.929-1.361 57.761-15s-21.118 54.75-56.786 81.3c0 0-27.375 17.979-39.814 18.214S52.99 316.617 52.99 316.617l7.5-17.143s-14.1-21.289-14.657-33.729-18.844-78.984-18.844-78.984z" fill="#ffbf86"/><path d="M49.628 314.379l135.836 47.807-3.739 13.479-139.661-48.011z" fill="#fff"/><path d="M36.643 325.125l152.346 52.543-8.154 28.061H0z" fill="#0a2933"/><circle cx="11.893" cy="11.893" r="11.893" transform="translate(134.668 375.653)" fill="#ff9138"/><path d="M255.654 43.778s14.239-11.786 21.975-10.371c10.1 1.9 18.161 10.554 19.7 17.014 3.107 13.061-24.054 33.386-41.679 46.864z" fill="#ffbf86"/><path d="M282.493 126.022s-4 13.736-11.046 20.357a68.718 68.718 0 0 1-15.686 10.714l.268-13.779 21.707-18.5z" fill="#d8772e"/><path d="M258.611 97.114c-6.782 2.068-19.639 10.575-21.986 17.9s-.45 25.393 15.2 27.921c5.979.964 12.771.771 22.607-8.111 2.3-2.079 7.95-7.5 8.229-9.311s2.486-11.6-8.925-24.011c.004.005-5.161-7.442-15.125-4.388z" fill="#ffbf86"/><path d="M242.904 116.818s12.3 18.664 14.786 19.629c0 0 7.5-4.5 9.107-8.507s-2.464-14.1-9.643-15.375-14.25 4.253-14.25 4.253z" fill="#ffd4ba"/><path d="M293.154 170.807s-6.568 14.464-16.939 24.107a156.965 156.965 0 0 1-20.454 15.943v-17.55l24.879-31.275 12.514 2.764z" fill="#d8772e"/><path d="M255.761 203.871v25.886s16.586 7.329 25.3 28.929l28.811-48.139z" fill="#d8772e"/><path d="M287.057 180.76s-24.436 14.69-29.036 19.8-9.5 22.039 7.746 34.146c4.629 3.214 13.029 7.6 33.214-12.857 0 0 9.118-7.875 10.918-11.336s4.843-17-5.25-25.018-17.592-4.735-17.592-4.735zM271.114 140.271s-20.261 9.471-28.35 18.214-9.889 22.95-1.382 28.929 21.718 8.957 35.271-4.554c3.579-3.568 11.936-13.489 14.079-14.454s2.421 2.346 2.421 2.346 4.286-17.346-4.082-25.371c-6.804-6.449-14.829-6.492-17.957-5.11z" fill="#ffbf86"/><path d="M260.303 211.458s13.361 15.921 15.5 16.886c0 0 9.846-7.114 10.136-11.443.439-6.429-5.914-14.014-13.168-13.189-7.508.846-12.468 7.746-12.468 7.746zM243.664 168.321s13.318 15.707 15.407 16.779c0 0 9.514-5.957 10.575-10.157s-4.446-13.736-11.786-13.929-14.196 7.307-14.196 7.307zM87.45 109.511s8.486 8.475-.493 18.214-16.864 3.964-16.864 3.964z" fill="#ffd4ba"/></g></g></svg>