<svg xmlns="http://www.w3.org/2000/svg" xmlns:xlink="http://www.w3.org/1999/xlink" width="1920" height="400" viewBox="0 0 1920 400"><defs><linearGradient id="a" y1="1" x2="0" gradientUnits="objectBoundingBox"><stop offset="0" stop-color="#0095ff"/><stop offset="1" stop-color="#003eaa"/></linearGradient><linearGradient id="b" y1="1" x2="0" gradientUnits="objectBoundingBox"><stop offset="0" stop-color="#0c9aff"/><stop offset="1" stop-color="#4187ff"/></linearGradient><clipPath id="c"><rect width="1920" height="400" transform="translate(16768 5087)" fill="#3469d0" stroke="#707070" stroke-width="1"/></clipPath><clipPath id="d"><rect width="1961" height="1024" transform="translate(13850 8117)" fill="url(#a)"/></clipPath><linearGradient id="e" y1="0.244" x2="0.827" y2="0.789" gradientUnits="objectBoundingBox"><stop offset="0" stop-color="#fff" stop-opacity="0.149"/><stop offset="1" stop-color="#0f60e2"/></linearGradient><linearGradient id="f" x1="0.006" y1="0.16" x2="1.007" y2="0.187" gradientUnits="objectBoundingBox"><stop offset="0" stop-color="#3af7f7"/><stop offset="1" stop-color="#3a5fef"/></linearGradient><linearGradient id="g" x1="0.99" y1="0.056" x2="-0.553" y2="1.311" gradientUnits="objectBoundingBox"><stop offset="0" stop-color="#0f39de"/><stop offset="1" stop-color="#49c6f1"/></linearGradient></defs><g transform="translate(-2967 -434)"><rect width="1920" height="400" transform="translate(2967 434)" fill="url(#b)"/><g transform="translate(-13801 -4653)" clip-path="url(#c)"><g transform="translate(2898 -3490)" clip-path="url(#d)"><g transform="translate(13488.556 7923.04)" opacity="0.2"><path d="M6703.161,2697s-186.71,590.992,332.646,700.133,735.039-112.741,735.039-112.741c13.949-15.5,55.8-23.685,75.112-49.152,0,0-241.115,426.106-804.786,382.9-605.2-46.385-732.578-571.627-574.618-921.144Z" transform="translate(-6308.594 -2572.293)" fill="url(#e)"/><path d="M6335.323,3061.927s116.113,271.489,504.019,421.558,756.407-8.686,975.4-285.131c196.368-247.882,675.126-350.616,1066.7-69.578,0,0-96.128-15.006-442.187,311.053S7747.14,3825.8,7384.987,3794.537c0,0,181.883,34.789,265.981,19.328,0,0-527.626,96.333-953.269-284.449,0,0,76.633,159.4,201.733,181.9C6899.434,3711.317,6544.613,3728.294,6335.323,3061.927Z" transform="translate(-6335.323 -2526.311)" fill="url(#f)"/><path d="M6572.516,3502.538s271.839,217.525,587.315,161.59,628.244-422.607,753.281-536.156c135.2-122.785,463.557-197.819,769.374-51.842,0,0-130.375,51.842-204.415,140.518S7966.229,3890.6,7175.927,3750.077c0,0,152.373,71.4,378.249,57.753S7028.2,3946.682,6572.516,3502.538Z" transform="translate(-6243.762 -2520.05)" fill="url(#g)"/></g></g></g></g></svg>