<svg xmlns="http://www.w3.org/2000/svg" width="131.503" height="36" viewBox="0 0 131.503 36"><g transform="translate(-0.071 0.037)"><g transform="translate(44.66 2.867)"><path d="M432.46,25.251h-5.644a7.286,7.286,0,0,0-1.373.109.958.958,0,0,0-.893.872,2.449,2.449,0,0,0-.065.7v9.959c0,.239-.065.3-.3.3-.523-.022-1.024-.022-1.547,0-.153,0-.218-.022-.218-.2,0-3.748-.043-7.5.022-11.245a2.484,2.484,0,0,1,2.179-2.462,7.613,7.613,0,0,1,1.416-.109c1.656,0,3.313-.022,4.968,0,.284,0,.327-.087.3-.327a5.236,5.236,0,0,1,0-.828c.022-.2-.043-.262-.262-.262h-8.52c-.2,0-.239-.065-.218-.239.022-.523.022-1.067,0-1.591,0-.218.043-.284.261-.284,2.811,0,5.622,0,8.412.022.262,0,.349-.065.327-.327a5.658,5.658,0,0,1,0-.61c0-.131.022-.174.174-.174h1.7c.131,0,.174.043.174.174a6.127,6.127,0,0,1,0,.632c-.022.218.043.3.284.3H442c.349,0,.349,0,.349.349,0,.48-.022.959,0,1.438.022.284-.087.327-.327.327-2.79,0-5.6,0-8.39-.022-.218,0-.3.043-.284.284a6.4,6.4,0,0,1,0,.915c0,.2.065.218.239.218h5.6a3,3,0,0,1,2.158.7,2.6,2.6,0,0,1,.807,1.373,4.8,4.8,0,0,1,.109.959v8.216a2.534,2.534,0,0,1-2.223,2.659,17.238,17.238,0,0,1-3.356.109c-.109,0-.131-.043-.131-.131V35.253c0-.174.087-.153.2-.153h2a2.959,2.959,0,0,0,.632-.065,1,1,0,0,0,.762-.85,5.265,5.265,0,0,0,.043-.828V26.689a2.286,2.286,0,0,0-.109-.654,1.026,1.026,0,0,0-.915-.7c-.3-.022-.61-.065-.893-.065C436.357,25.251,434.4,25.251,432.46,25.251Z" transform="translate(-400.012 -18.494)" fill="#fff"/><path d="M718.212,46.759c-2.136,0-4.293.022-6.429-.022a4.984,4.984,0,0,1-1.7-.2,2.528,2.528,0,0,1-1.656-2.288c0-.937.131-1.853.174-2.79.022-.436.087-.85.087-1.286,0-.131.022-.174.174-.174h1.744c.174,0,.174.087.174.2-.109.937-.2,1.853-.262,2.79a3.16,3.16,0,0,0,0,.785,1.082,1.082,0,0,0,1.046.828c4.271,0,8.521-.022,12.792,0a4,4,0,0,1,2,.349,2.3,2.3,0,0,1,1.264,1.9c.131,1.787.043,3.574.043,5.382a2.723,2.723,0,0,1-.876,2.155,2.423,2.423,0,0,1-1.547.654c-5.361.109-10.722.022-16.061.065-.262,0-.349-.043-.327-.327.022-.523.022-1.024,0-1.547,0-.2.065-.239.24-.239h14.974a1.507,1.507,0,0,0,1.155-.327,1.3,1.3,0,0,0,.349-.762,8.93,8.93,0,0,0,.043-1.329v-2.48a1.809,1.809,0,0,0-.153-.828.855.855,0,0,0-.828-.523C722.5,46.759,720.345,46.759,718.212,46.759Z" transform="translate(-640.784 -36.538)" fill="#fff"/><path d="M450.4,68.2h2.877c.174,0,.24-.043.24-.218-.022-.392,0-.807,0-1.2,0-.174.043-.2.2-.2h1.678c.174,0,.218.022.218.218-.022.414,0,.828,0,1.22,0,.153.043.2.2.2H456.9c.174,0,.239.022.239.218q-.033.85,0,1.7c0,.174-.043.239-.239.239-1.721,0-3.443,0-5.143-.022-.24,0-.284.065-.284.284q.033.719,0,1.438c0,.218.043.284.262.284,1.7,0,3.421,0,5.121-.022.218,0,.284.065.261.262-.022.523-.022,1.024,0,1.547,0,.218-.043.284-.284.284-1.7-.022-3.4,0-5.1-.022-.218,0-.284.043-.284.284.022.872,0,1.743.022,2.615,0,.218-.065.262-.262.262-.523-.022-1.046,0-1.569,0-.174,0-.218-.043-.218-.218v-2.7c0-.2-.065-.239-.24-.239h-5.141c-.2,0-.262-.043-.262-.239.022-.545.022-1.089,0-1.612,0-.2.043-.239.24-.239,1.7,0,3.421,0,5.121.022.261,0,.3-.065.3-.327q-.033-.719,0-1.438c0-.2-.043-.239-.24-.239h-5.143c-.218,0-.284-.065-.262-.284.022-.545.022-1.089,0-1.656,0-.174.043-.239.218-.239.349.022.719,0,1.067,0,.131,0,.174-.043.174-.174V66.758c0-.153.022-.218.218-.218.545.022,1.089,0,1.656,0,.153,0,.2.043.2.2,0,.392.022.785,0,1.177-.022.239.065.262.284.262C448.508,68.2,449.445,68.2,450.4,68.2Z" transform="translate(-418.086 -58.868)" fill="#fff"/><path d="M713.794,18.6h7.1a7,7,0,0,1,1.656.153,2.469,2.469,0,0,1,1.831,2.07,11.855,11.855,0,0,1-.109,1.961c-.022.239-.043.458-.066.7-.087.828-.153,1.635-.218,2.462,0,.087-.043.109-.131.109h-1.853c-.109,0-.131-.043-.109-.131.109-.676.131-1.373.218-2.048.065-.7.153-1.4.2-2.092a1.107,1.107,0,0,0-1.024-1.067,23.312,23.312,0,0,0-2.462-.043H706.254c-.262,0-.3-.065-.3-.3.022-.5.022-1,0-1.526,0-.218.043-.284.262-.284C708.76,18.622,711.266,18.6,713.794,18.6Z" transform="translate(-638.7 -18.489)" fill="#fff"/><path d="M672.728,172.673h5.078a2.848,2.848,0,0,1,1.547.458,1.031,1.031,0,0,1,.48.872v3.661c0,.2-.065.239-.24.239q-.784-.033-1.569,0c-.174,0-.24-.043-.24-.218v-3.269c0-.48-.2-.7-.676-.7H674.45c-.589,0-.7.262-.7.676.022,1.089,0,2.179.022,3.269,0,.218-.065.262-.262.262-.523-.022-1.024-.022-1.547,0-.2,0-.24-.043-.24-.239v-3.313c0-.458-.174-.632-.632-.632h-2.7c-.61,0-.719.262-.7.676.022,1.089,0,2.179.022,3.269,0,.2-.043.239-.24.239-.523-.022-1.067,0-1.59,0-.153,0-.218-.022-.218-.2v-3.813a.988.988,0,0,1,.523-.807,3.025,3.025,0,0,1,1.569-.414C669.394,172.673,671.072,172.673,672.728,172.673Z" transform="translate(-604.803 -148.177)" fill="#fff"/><path d="M711.177,97.887H703.07c-.239,0-.284-.065-.284-.284q.033-.785,0-1.569c0-.2.043-.262.24-.239.74.022,1.482,0,2.223,0h14.034c.24,0,.3.065.284.3-.022.5-.022,1,0,1.526,0,.218-.043.284-.284.284C716.581,97.866,713.879,97.887,711.177,97.887Z" transform="translate(-636.038 -83.482)" fill="#fff"/><path d="M621.077,95c-1.111,0-2.223.022-3.312-.022a8.777,8.777,0,0,1-1.5-.131,1.4,1.4,0,0,1-1.155-1.416c-.043-.48,0-.959,0-1.438,0-.131.022-.2.174-.174h1.438c.131,0,.2.043.174.174a4.177,4.177,0,0,0,0,.523c.022.588.2.7.719.719.588.022,1.177,0,1.744,0h5.753a2.756,2.756,0,0,1,1.089.262,1.193,1.193,0,0,1,.676,1.177c.022.893.043,1.787,0,2.659a1.471,1.471,0,0,1-1.46,1.46c-.719.065-1.416.022-2.135.043-.2,0-.24-.065-.218-.239.022-.436.022-.893,0-1.329,0-.174.043-.218.218-.218.392.022.762,0,1.155,0,.349,0,.458-.043.5-.37a4.828,4.828,0,0,0-.021-1.374.369.369,0,0,0-.414-.3Z" transform="translate(-562.239 -80.132)" fill="#fff"/><path d="M286.779,159.823v-3.7c0-.2.043-.262.24-.239.523.022,1.067.022,1.591,0,.174,0,.218.043.218.218v2.179c0,.218.043.284.284.284,1.831-.022,3.661,0,5.491,0a2.494,2.494,0,0,1,1.525.48,1.006,1.006,0,0,1,.436.85v3.683c0,.153-.043.218-.2.2-.566,0-1.134-.022-1.7,0-.174,0-.2-.065-.2-.218v-3.4a.508.508,0,0,0-.545-.588h-4.6a.465.465,0,0,0-.5.523v3.421c0,.174-.043.239-.218.239-.523-.022-1.068-.022-1.591,0-.2,0-.218-.065-.218-.239C286.779,162.286,286.779,161.065,286.779,159.823Z" transform="translate(-285.972 -134.042)" fill="#fff"/><path d="M541,172.326c.85,0,1.7-.022,2.528,0a2.575,2.575,0,0,1,1.786.676.757.757,0,0,1,.218.545v3.836c0,.153-.043.2-.2.2-.545,0-1.089-.022-1.656,0-.174,0-.2-.065-.2-.218V173.9a.5.5,0,0,0-.545-.566c-1.22,0-2.441-.022-3.661,0-.458,0-.654.087-.654.654v3.29c0,.2-.043.24-.24.218-.545-.022-1.089,0-1.612,0-.131,0-.2-.022-.2-.174v-3.792a1.067,1.067,0,0,1,.807-.981,3.922,3.922,0,0,1,1.5-.284A17.4,17.4,0,0,0,541,172.326Z" transform="translate(-496.171 -147.83)" fill="#fff"/><path d="M363.23,175.424V177.3c0,.2-.065.239-.239.218q-.785-.033-1.569,0c-.2,0-.239-.043-.239-.239.022-1.134,0-2.267,0-3.4a.476.476,0,0,0-.545-.545c-1.22,0-2.441-.022-3.661,0-.436,0-.654.065-.654.654v3.269c0,.174-.022.262-.239.239-.545-.022-1.089,0-1.612,0-.153,0-.2-.043-.2-.2v-3.77a1.226,1.226,0,0,1,.828-1.024,3.536,3.536,0,0,1,1.5-.262c1.46.022,2.92,0,4.38,0a3.231,3.231,0,0,1,1.744.48.887.887,0,0,1,.48.828C363.23,174.2,363.23,174.813,363.23,175.424Z" transform="translate(-342.768 -147.811)" fill="#fff"/><path d="M421.85,170.7c-.523,0-1.024.022-1.547,0a2.314,2.314,0,0,1-1.678-.632.92.92,0,0,1-.284-.7V166.89c0-.174-.043-.218-.218-.218-.588.022-1.177,0-1.787,0-.174,0-.218-.043-.218-.218a2.294,2.294,0,0,0,0-.545c-.022-.218.022-.3.284-.284.566.022,1.155,0,1.722,0,.153,0,.218-.043.2-.2-.022-.37,0-.741,0-1.089,0-.2.065-.239.239-.218.523.022,1.067,0,1.591,0,.174,0,.218.043.218.218-.022.37,0,.741,0,1.089,0,.174.043.218.218.218h2.877c.218,0,.284.065.261.284a2.288,2.288,0,0,0,0,.545c.022.174-.043.239-.218.239h-2.877c-.218,0-.262.065-.262.262.022.7.022,1.373,0,2.07-.022.5.152.632.676.654a22.807,22.807,0,0,0,2.441.043c.174,0,.2.065.2.218-.022.262.087.588-.043.741-.131.174-.48.043-.719.043A8.586,8.586,0,0,0,421.85,170.7Z" transform="translate(-394.807 -140.977)" fill="#fff"/><path d="M615.518,119.679h-3.639c-.2,0-.24-.065-.24-.239a11.019,11.019,0,0,0,0-1.2c0-.218.043-.284.284-.284h6.843c.611,0,.611,0,.611.61,0,.284-.022.566,0,.872.022.2-.043.239-.24.239C617.937,119.658,616.738,119.679,615.518,119.679Z" transform="translate(-559.339 -102.135)" fill="#fff"/><path d="M283.982,69.8H282.02c-.2,0-.24-.043-.218-.239.022-.566,0-1.155,0-1.722,0-.153.043-.2.2-.2h4.032c.153,0,.2.043.2.2,0,.588-.022,1.177,0,1.743,0,.2-.065.218-.218.2C285.314,69.8,284.635,69.8,283.982,69.8Z" transform="translate(-281.78 -59.793)" fill="#fff"/><path d="M283.982,122.544H282.02c-.2,0-.24-.065-.218-.239.022-.566,0-1.111,0-1.678,0-.153.043-.2.2-.2h4.032c.153,0,.2.043.2.2V122.3c0,.174-.043.239-.218.239C285.314,122.523,284.635,122.544,283.982,122.544Z" transform="translate(-281.78 -104.216)" fill="#fff"/><path d="M283.912,20.369h1.983c.153,0,.218.022.2.2-.022.545-.022,1.089,0,1.656,0,.174-.043.2-.2.2h-4.01c-.153,0-.2-.043-.2-.2V20.543c0-.153.043-.2.2-.2C282.561,20.39,283.236,20.369,283.912,20.369Z" transform="translate(-281.688 -19.996)" fill="#fff"/><path d="M622.71,24.77c0,.218-.065.239-.262.239h-1.787a3.365,3.365,0,0,0,1.068.872,2.5,2.5,0,0,0,.785.327c.131.043.2.087.2.239v1.612c0,.174-.043.218-.218.153-.131-.043-.261-.043-.392-.087-.3-.065-.3-.065-.218.218A3.864,3.864,0,0,1,621.925,30a4.218,4.218,0,0,1-.043.741c-.022.109-.043.131-.153.131h-1.678c-.153,0-.174-.065-.174-.174.022-.284.065-.566.088-.85.043-.458-.022-.654-.523-.654-2.7.022-5.4,0-8.106,0-.479,0-.479,0-.479-.48v-.654a4.6,4.6,0,0,0-.523.131c-.087.022-.24.065-.218-.109a7.166,7.166,0,0,0,.043-1.526.378.378,0,0,1,.283-.414,4.9,4.9,0,0,0,1.787-1.177h-1.089c-.218,0-.523.065-.654-.043-.153-.131-.043-.436-.043-.676s.022-.48,0-.741c-.022-.218.022-.3.284-.284.872.022,1.722,0,2.593,0,.153,0,.218-.022.284-.174.131-.327.3-.632.458-.937a.456.456,0,0,0-.284-.043h-3.115c-.174,0-.218-.043-.218-.218.021-.458,0-.915,0-1.351,0-.153.021-.218.2-.218.218,0,.523.109.654-.043s.043-.458.043-.676c0-.392.022-.807,0-1.2,0-.2.065-.218.24-.218.545.022,1.089.022,1.656,0,.174,0,.218.043.218.218-.022.566,0,1.134-.022,1.7,0,.2.065.239.24.239.284-.022.566,0,.872,0,.131,0,.2-.022.24-.153.218-.61.436-1.2.654-1.787a.251.251,0,0,1,.284-.2c.654.022,1.285,0,1.939,0,.2,0,.218.065.153.239-.24.632-.479,1.264-.74,1.918h2.484c.153,0,.174-.065.174-.2v-1.72c0-.174.022-.239.218-.239.566.022,1.111.022,1.678,0,.153,0,.2.043.2.2-.022.566,0,1.134,0,1.7,0,.174.022.262.24.262s.5-.109.632.043c.109.131.043.392.043.61,0,.3-.022.61,0,.915.022.218-.087.218-.239.218h-5.753a.413.413,0,0,0-.458.284c-.109.262-.24.523-.327.807h6.581c.174,0,.218.043.218.218A9.523,9.523,0,0,0,622.71,24.77Zm-9.849,2.484h7.17c-.284-.239-.566-.436-.807-.676a8.012,8.012,0,0,1-1.155-1.416.278.278,0,0,0-.283-.153h-2.659a.341.341,0,0,0-.327.174,6.328,6.328,0,0,1-1.307,1.547,6.145,6.145,0,0,0-.632.523Z" transform="translate(-558.054 -18.144)" fill="#fff" fill-rule="evenodd"/><path d="M369.873,25.207c.022.893,0,1.787,0,2.7v7.082a3.074,3.074,0,0,1-.239,1.242,1.68,1.68,0,0,1-1.373.981,4.2,4.2,0,0,1-1.046,0c-.131,0-.174-.022-.174-.153V35.274c0-.131.043-.153.174-.153.5-.022.676-.218.676-.719V32.333c0-.174-.043-.2-.2-.2-.915,0-1.852.022-2.767,0-.2,0-.218.065-.218.239,0,.654.022,1.286,0,1.939a4.675,4.675,0,0,1-.349,1.635,1.962,1.962,0,0,1-1.569,1.155c-.327.065-.349.043-.284-.327a3.692,3.692,0,0,0,.022-.5,6.8,6.8,0,0,1,.2-2.288.879.879,0,0,0,0-.239V20.784a2.147,2.147,0,0,1,.589-1.634,1.594,1.594,0,0,1,.959-.414,23.445,23.445,0,0,1,3.029-.043,3.648,3.648,0,0,1,1.656.284,1.574,1.574,0,0,1,.872,1.329C369.939,21.962,369.851,23.6,369.873,25.207Zm-2.18,5.056c.153,0,.2-.043.2-.2V26.514c0-.153-.043-.2-.2-.2h-2.811c-.153,0-.2.043-.2.2v3.553c0,.153.043.2.2.2Zm0-5.8c.153,0,.2-.043.2-.2V22.832c0-.436-.022-.893,0-1.329.022-.523-.284-.719-.719-.741-.632-.022-1.264-.022-1.874,0a.5.5,0,0,0-.545.37,3.608,3.608,0,0,0-.065.48V24.27c0,.153.043.2.2.2q1.4-.033,2.811,0Z" transform="translate(-349.672 -18.58)" fill="#fff" fill-rule="evenodd"/><path d="M569.242,28.16V35.5a1.972,1.972,0,0,1-.719,1.547,1.793,1.793,0,0,1-1.134.349c-.523.022-1.046,0-1.569,0-.153,0-.2-.043-.2-.2V35.526c0-.153.065-.174.2-.174h.872a.572.572,0,0,0,.611-.632c.022-.893.022-1.809.065-2.7,0-.2-.043-.239-.24-.218-.588,0-1.177.022-1.744,0-.2,0-.218.065-.218.239v2.07a3.258,3.258,0,0,1-2.419,3.182c-.131.043-.2.022-.2-.153V35.329a.3.3,0,0,1,.153-.284,1.165,1.165,0,0,0,.545-.959c.109-1.4.043-2.79.043-4.162.022-3.051,0-6.124,0-9.174a1.724,1.724,0,0,1,1.569-1.787,14.491,14.491,0,0,1,2.572-.043,1.756,1.756,0,0,1,1.525.807,2.089,2.089,0,0,1,.3,1.067C569.242,23.235,569.242,25.7,569.242,28.16Zm-1.874,1.286c.022-.959-.109-1.918-.065-2.9,0-.131-.022-.2-.174-.2h-1.765c-.153,0-.2.043-.2.2.022.5,0,1,0,1.482v1.482c0,.153.043.2.2.2.588,0,1.177-.022,1.744,0,.217.022.261-.065.261-.262Zm0-5.4c.022-.915-.088-1.831-.065-2.724,0-.392-.109-.458-.48-.48-.349-.022-.719,0-1.068,0-.436,0-.588.153-.588.588v2.659c0,.153.043.218.2.2.588,0,1.177-.022,1.787,0C567.323,24.28,567.368,24.215,567.368,24.041Z" transform="translate(-518.031 -18.766)" fill="#fff" fill-rule="evenodd"/><path d="M321.658,22.247c0,.2-.065.218-.239.218H319.3c-.174,0-.218.043-.218.218v4.031c0,.174.065.218.218.218a2.543,2.543,0,0,1,1.438.218,1.63,1.63,0,0,1,.915,1.482v6.995a1.977,1.977,0,0,1-.436,1.351,1.706,1.706,0,0,1-1.155.588,27,27,0,0,1-3.247.043,2.818,2.818,0,0,1-1.612-.392,1.8,1.8,0,0,1-.654-1.046,2.663,2.663,0,0,1-.043-.719c0-2.267.022-4.555,0-6.821a1.87,1.87,0,0,1,1.438-1.656,7.045,7.045,0,0,1,.959-.043c.131,0,.174-.022.174-.153V22.661c0-.153-.065-.153-.2-.153h-2.114c-.2,0-.284-.022-.262-.239.022-.523.022-1.067,0-1.591,0-.153.043-.218.2-.2h2.113c.218,0,.262-.065.24-.262-.022-.3,0-.632,0-.937,0-.131.022-.174.153-.174h1.722c.131,0,.153.043.153.174v.893c-.022.2.043.262.239.262.7-.022,1.4,0,2.092,0,.2,0,.239.043.218.239C321.658,21.157,321.658,21.7,321.658,22.247Zm-2.681,13.271a.635.635,0,0,0,.654-.615V32.271c0-.85.022-1.7,0-2.571-.022-.545-.131-.7-.7-.719h-1.7c-.5,0-.676.174-.676.7v4.859a5.027,5.027,0,0,0,.065.566.464.464,0,0,0,.37.37,2.378,2.378,0,0,0,.566.065c.436,0,.937-.022,1.416-.022Z" transform="translate(-309.301 -18.954)" fill="#fff" fill-rule="evenodd"/><path d="M608.555,173.8v4.184c0,.828-.262.981-.893,1.264a3.1,3.1,0,0,1-1.264.218c-1.112-.022-2.223,0-3.356,0H599.4c-.2,0-.24-.043-.24-.239a2.281,2.281,0,0,0,0-.545c-.022-.2.065-.218.24-.218,1.939,0,3.879.022,5.84,0a4.338,4.338,0,0,0,.915-.087.364.364,0,0,0,.3-.48v-.153c0-.588,0-.588-.566-.588-1.416,0-2.833.022-4.228-.022a5.6,5.6,0,0,1-1.9-.239,1.334,1.334,0,0,1-.937-1.286,13.979,13.979,0,0,0,0-1.656,1.148,1.148,0,0,1,.676-1.111,3.056,3.056,0,0,1,1.373-.349c1.918,0,3.836-.022,5.753,0a2.334,2.334,0,0,1,1.678.654A.848.848,0,0,1,608.555,173.8Zm-2.07.239a.388.388,0,0,0-.261-.392.857.857,0,0,0-.392-.087h-4.25c-.458,0-.632.174-.632.61v1.416a.422.422,0,0,0,.327.436,1.75,1.75,0,0,0,.654.087c1.351.022,2.7.065,4.031-.043a.5.5,0,0,0,.545-.566,10.938,10.938,0,0,1-.021-1.46Z" transform="translate(-548.563 -148.014)" fill="#fff" fill-rule="evenodd"/><path d="M479.5,173.516a3.155,3.155,0,0,1-.022.785,1.334,1.334,0,0,1-.937.893,2.4,2.4,0,0,1-.959.153c-1.853.109-3.7.022-5.557.043-.174,0-.218.065-.218.218,0,.676.109.763.763.785,2.135.109,4.271.022,6.428.043.174,0,.218.043.2.2-.022.262.109.61-.065.741-.131.131-.479.043-.74.043h-6.668a2.8,2.8,0,0,1-1.547-.458.9.9,0,0,1-.414-.785v-2.79a1.259,1.259,0,0,1,1-1.089,5.922,5.922,0,0,1,1.373-.174H477.1a4.168,4.168,0,0,1,1.7.349A1.026,1.026,0,0,1,479.5,173.516Zm-2.092.414c.065-.545-.109-.719-.654-.719-1.329,0-2.681.022-4.032,0-.937-.022-.937.131-.937.959,0,.153.043.2.2.2.7-.022,1.416,0,2.2,0,.807-.022,1.722.022,2.615-.043.327-.044.588-.2.611-.392Z" transform="translate(-439.948 -147.712)" fill="#fff" fill-rule="evenodd"/><path d="M771.556,177.173c0,.218.065.5-.043.632-.131.153-.436.043-.654.043a1.977,1.977,0,0,1-.937-.153c-.218-.109-.392.022-.588.065a2.707,2.707,0,0,1-.719.087H763.08a2.76,2.76,0,0,1-1.678-.545.789.789,0,0,1-.327-.676v-2.681a1.021,1.021,0,0,1,.436-.828,2.494,2.494,0,0,1,1.5-.5h2.746c.937,0,1.874-.022,2.833,0a2.588,2.588,0,0,1,1.7.654.751.751,0,0,1,.262.611v2.223c0,.458.131.611.61.632C771.556,176.781,771.556,176.781,771.556,177.173ZM768,176.8a.535.535,0,0,0,.523-.545c-.021-.7-.021-1.373,0-2.07a.466.466,0,0,0-.349-.48.849.849,0,0,0-.327-.043h-4.076c-.566,0-.676.262-.654.654.022.654,0,1.308,0,1.961a.472.472,0,0,0,.414.523,6.571,6.571,0,0,0,.654.065h1.7c.632-.043,1.373.022,2.113-.065Z" transform="translate(-685.087 -148.123)" fill="#fff" fill-rule="evenodd"/></g><g transform="translate(0.071 -0.037)"><path d="M1.256,95.823c0,.065-.022.109-.022.174a.54.54,0,0,1,.022-.174Z" transform="translate(-1.101 -80.604)" fill="#fff"/><path d="M1.256,95.823c0,.065-.022.109-.022.174a.54.54,0,0,1,.022-.174Z" transform="translate(-1.101 -80.604)" fill="#fff"/><path d="M1.256,95.823h0c0,.043-.022.109-.022.174a.54.54,0,0,1,.022-.174Z" transform="translate(-1.101 -80.604)" fill="#fff"/><path d="M36.974,17.427h-.2c-2.179.218-3.051-3.923-3.7-4.794s-1.525-2.4-3.487-1.961c-2.135.48-5.884,5.23-6.538,5.012-.915-.3,2.441-9.98.218-10.461-3.051-.654-9.872,9.436-11.115,8.934-1.089-.436,2.615-7.627-.654-7.846a4.485,4.485,0,0,0-2.462.937c-.109.065-.218.153-.327.218A25.219,25.219,0,0,0,6.4,9.428c-.131.109-.239.239-.37.37h0l-.2.2-.2.2c-.3.327-.632.632-.915.959-.087.109-.2.218-.284.327-.719.785-1.4,1.547-1.918,2.2a2.951,2.951,0,0,0-.262.262c-.174.218-.349.436-.5.61a.587.587,0,0,1-.153.174,1.907,1.907,0,0,1-.174.218.583.583,0,0,0-.109.131c-.022.043-.065.065-.087.109a17.98,17.98,0,0,1,35.739,2.245Z" transform="translate(-1.102 0.037)" fill="#fff"/><path d="M226.752,110.114v-.131h0A.138.138,0,0,0,226.752,110.114Z" transform="translate(-190.858 -92.519)" fill="#fff"/><path d="M36.04,91.517A17.964,17.964,0,0,1,.408,89.9c.043.109.087.153.153.043C1,89.293,4.92,84.5,5.791,85.37s-3.269,9.153-.872,9.588S15.38,83.626,17.342,83.843s-3.269,11.506-.872,11.985c2.181.439,7.632-8.932,10.248-8.932,2,0,2.833,1.961,5.23,4.359C34.188,93.5,35.8,91.8,36.04,91.517Z" transform="translate(-0.408 -70.522)" fill="#fff"/><path d="M226.752,110.114v-.131h0A.138.138,0,0,0,226.752,110.114Z" transform="translate(-190.858 -92.519)" fill="#fff"/><path d="M225.189,130.4c.022-.109.043-.239.065-.349C225.232,130.164,225.211,130.294,225.189,130.4Z" transform="translate(-189.557 -109.409)" fill="#fff"/><path d="M226.752,110.114v-.131h0A.138.138,0,0,0,226.752,110.114Z" transform="translate(-190.858 -92.519)" fill="#fff"/></g></g></svg>