<svg xmlns="http://www.w3.org/2000/svg" xmlns:xlink="http://www.w3.org/1999/xlink" width="146.111" height="40.006" viewBox="0 0 146.111 40.006"><defs><linearGradient id="a" x1="1" x2="0" gradientUnits="objectBoundingBox"><stop offset="0" stop-color="#347eff"/><stop offset="1" stop-color="#47acff"/></linearGradient><linearGradient id="b" y1="1" x2="1" y2="1" gradientUnits="objectBoundingBox"><stop offset="0" stop-color="#fdc142"/><stop offset="1" stop-color="#fe9002"/></linearGradient></defs><g transform="translate(-0.071 0.04)"><g transform="translate(49.614 3.19)"><g transform="translate(24.765 0.074)"><path d="M433.589,25.994h-6.271a8.1,8.1,0,0,0-1.526.121,1.064,1.064,0,0,0-.993.969,2.725,2.725,0,0,0-.073.775V38.924c0,.266-.073.339-.339.339-.581-.025-1.138-.025-1.719,0-.17,0-.242-.025-.242-.218,0-4.164-.048-8.33.025-12.494a2.76,2.76,0,0,1,2.421-2.736,8.461,8.461,0,0,1,1.574-.121c1.84,0,3.681-.025,5.52,0,.315,0,.363-.1.339-.363a5.809,5.809,0,0,1,0-.92c.024-.218-.048-.291-.291-.291h-9.467c-.218,0-.266-.073-.242-.266.025-.581.025-1.186,0-1.768,0-.242.048-.315.291-.315,3.124,0,6.247,0,9.347.025.291,0,.388-.073.363-.363a6.289,6.289,0,0,1,0-.678c0-.145.024-.193.193-.193h1.889c.145,0,.193.048.193.193a6.805,6.805,0,0,1,0,.7c-.025.242.048.339.315.339h9.3c.388,0,.388,0,.388.388,0,.533-.025,1.065,0,1.6.025.315-.1.363-.363.363-3.1,0-6.223,0-9.322-.025-.242,0-.339.048-.315.315a7.105,7.105,0,0,1,0,1.017c0,.218.073.242.266.242h6.223a3.335,3.335,0,0,1,2.4.775,2.893,2.893,0,0,1,.9,1.526,5.33,5.33,0,0,1,.121,1.065v9.129a2.815,2.815,0,0,1-2.47,2.954,19.154,19.154,0,0,1-3.729.121c-.121,0-.145-.048-.145-.145v-2.01c0-.193.1-.17.218-.17h2.227a3.288,3.288,0,0,0,.7-.073,1.11,1.11,0,0,0,.847-.944,5.85,5.85,0,0,0,.048-.92V27.593a2.544,2.544,0,0,0-.121-.726,1.141,1.141,0,0,0-1.017-.775c-.339-.025-.678-.073-.993-.073C437.919,25.994,435.739,25.994,433.589,25.994Z" transform="translate(-422.3 -18.561)" fill="#292f3a"/></g><g transform="translate(75.16 3.85)"><path d="M719.3,47.51c-2.373,0-4.77.025-7.143-.025a5.539,5.539,0,0,1-1.889-.218,2.809,2.809,0,0,1-1.84-2.543c0-1.042.145-2.059.193-3.1.024-.484.1-.944.1-1.428,0-.145.025-.193.193-.193h1.938c.193,0,.193.1.193.218-.121,1.042-.218,2.059-.291,3.1a3.5,3.5,0,0,0,0,.872,1.2,1.2,0,0,0,1.162.92c4.746,0,9.468-.025,14.213,0a4.442,4.442,0,0,1,2.227.388,2.56,2.56,0,0,1,1.4,2.107c.145,1.985.048,3.971.048,5.98a3.025,3.025,0,0,1-.973,2.395,2.692,2.692,0,0,1-1.719.726c-5.957.121-11.913.025-17.845.073-.291,0-.388-.048-.363-.363.025-.581.025-1.138,0-1.719,0-.218.073-.266.266-.266h16.64a1.674,1.674,0,0,0,1.283-.363,1.44,1.44,0,0,0,.388-.847,9.923,9.923,0,0,0,.048-1.477V48.99a2.011,2.011,0,0,0-.17-.92.95.95,0,0,0-.92-.581C724.067,47.51,721.669,47.51,719.3,47.51Z" transform="translate(-708.428 -40.003)" fill="#292f3a"/></g><g transform="translate(28.549 8.525)"><path d="M451.14,68.38h3.2c.193,0,.266-.048.266-.242-.024-.436,0-.9,0-1.331,0-.193.048-.218.218-.218h1.864c.193,0,.242.025.242.242-.025.46,0,.92,0,1.356,0,.17.048.218.218.218h1.21c.193,0,.266.025.266.242q-.036.944,0,1.889c0,.193-.048.266-.266.266-1.912,0-3.826,0-5.714-.025-.266,0-.315.073-.315.315q.036.8,0,1.6c0,.242.048.315.291.315,1.889,0,3.8,0,5.69-.025.242,0,.315.073.291.291-.024.581-.024,1.138,0,1.719,0,.242-.048.315-.315.315-1.889-.025-3.778,0-5.665-.025-.242,0-.315.048-.315.315.025.969,0,1.937.025,2.906,0,.242-.073.291-.291.291-.581-.025-1.162,0-1.744,0-.193,0-.242-.048-.242-.242v-3c0-.218-.073-.266-.266-.266h-5.713c-.218,0-.291-.048-.291-.266.025-.606.025-1.21,0-1.792,0-.218.048-.266.266-.266,1.889,0,3.8,0,5.69.025.291,0,.339-.073.339-.363q-.036-.8,0-1.6c0-.218-.048-.266-.266-.266H444.1c-.242,0-.315-.073-.291-.315.025-.606.025-1.21,0-1.84,0-.193.048-.266.242-.266.388.025.8,0,1.186,0,.145,0,.193-.048.193-.193V66.782c0-.17.025-.242.242-.242.606.025,1.21,0,1.84,0,.17,0,.218.048.218.218,0,.436.025.872,0,1.308-.024.266.073.291.315.291C449.033,68.38,450.075,68.38,451.14,68.38Z" transform="translate(-443.78 -66.54)" fill="#292f3a"/></g><g transform="translate(74.722 0.075)"><path d="M714.666,18.6h7.894a7.772,7.772,0,0,1,1.84.17,2.743,2.743,0,0,1,2.034,2.3,13.172,13.172,0,0,1-.121,2.179l-.073.775c-.1.92-.17,1.816-.243,2.736,0,.1-.048.121-.145.121h-2.058c-.121,0-.145-.048-.121-.145.121-.751.145-1.526.242-2.276.073-.775.17-1.55.218-2.325A1.23,1.23,0,0,0,723,20.954a25.9,25.9,0,0,0-2.736-.048H706.288c-.291,0-.339-.073-.339-.339.024-.557.024-1.114,0-1.7,0-.242.048-.315.291-.315C709.073,18.629,711.857,18.6,714.666,18.6Z" transform="translate(-705.949 -18.557)" fill="#292f3a"/></g><g transform="translate(67.628 27.217)"><path d="M673.513,172.673h5.642a3.165,3.165,0,0,1,1.719.509,1.146,1.146,0,0,1,.533.969v4.068c0,.218-.073.266-.266.266q-.872-.036-1.743,0c-.193,0-.266-.048-.266-.242V174.61c0-.533-.218-.775-.751-.775h-2.954c-.654,0-.775.291-.775.751.025,1.21,0,2.421.025,3.632,0,.242-.073.291-.291.291-.581-.025-1.138-.025-1.719,0-.218,0-.266-.048-.266-.266v-3.681c0-.508-.193-.7-.7-.7h-3c-.678,0-.8.291-.775.751.024,1.21,0,2.421.024,3.632,0,.218-.048.266-.266.266-.581-.025-1.186,0-1.767,0-.17,0-.242-.025-.242-.218v-4.237a1.1,1.1,0,0,1,.581-.9A3.36,3.36,0,0,1,668,172.7C669.808,172.673,671.672,172.673,673.513,172.673Z" transform="translate(-665.668 -172.673)" fill="#292f3a"/></g><g transform="translate(74.165 13.676)"><path d="M712.109,98.12H703.1c-.266,0-.315-.073-.315-.315q.036-.872,0-1.743c0-.218.048-.291.266-.266.823.025,1.646,0,2.47,0h15.593c.266,0,.339.073.315.339-.024.557-.024,1.114,0,1.7,0,.242-.048.315-.315.315C718.114,98.1,715.111,98.12,712.109,98.12Z" transform="translate(-702.787 -95.791)" fill="#292f3a"/></g><g transform="translate(58.719 12.975)"><path d="M621.742,95.35c-1.235,0-2.47.025-3.68-.025a9.751,9.751,0,0,1-1.671-.145,1.55,1.55,0,0,1-1.283-1.574c-.048-.533,0-1.065,0-1.6,0-.145.024-.218.193-.193h1.6c.145,0,.218.048.193.193a4.672,4.672,0,0,0,0,.581c.024.654.218.775.8.8.654.025,1.308,0,1.938,0h6.392a3.062,3.062,0,0,1,1.21.291,1.325,1.325,0,0,1,.751,1.308c.025.993.048,1.985,0,2.954a1.635,1.635,0,0,1-1.622,1.623c-.8.073-1.574.025-2.373.048-.218,0-.266-.073-.242-.266.024-.484.024-.993,0-1.477,0-.193.048-.242.242-.242.436.025.847,0,1.283,0,.388,0,.508-.048.557-.411a5.37,5.37,0,0,0-.03-1.527.41.41,0,0,0-.459-.339Z" transform="translate(-615.086 -91.81)" fill="#292f3a"/></g><g transform="translate(0.896 24.259)"><path d="M286.779,160.262v-4.116c0-.218.048-.291.266-.266.581.025,1.186.025,1.768,0,.193,0,.242.048.242.242v2.421c0,.242.048.315.315.315,2.034-.025,4.068,0,6.1,0a2.771,2.771,0,0,1,1.694.533,1.118,1.118,0,0,1,.484.944v4.092c0,.17-.048.242-.218.218-.629,0-1.259-.025-1.889,0-.193,0-.218-.073-.218-.242v-3.778a.564.564,0,0,0-.606-.654H289.61a.517.517,0,0,0-.557.581v3.8c0,.193-.048.266-.242.266-.581-.025-1.187-.025-1.768,0-.218,0-.242-.073-.242-.266C286.779,163,286.779,161.642,286.779,160.262Z" transform="translate(-286.779 -155.875)" fill="#292f3a"/></g><g transform="translate(44.891 27.145)"><path d="M541.488,172.333c.944,0,1.889-.025,2.809,0a2.861,2.861,0,0,1,1.985.751.84.84,0,0,1,.242.606v4.262c0,.17-.048.218-.218.218-.606,0-1.21-.025-1.84,0-.193,0-.218-.073-.218-.242v-3.85a.556.556,0,0,0-.606-.629c-1.356,0-2.712-.024-4.068,0-.508,0-.726.1-.726.726v3.656c0,.218-.048.266-.266.242-.606-.024-1.21,0-1.792,0-.145,0-.218-.024-.218-.193v-4.213a1.186,1.186,0,0,1,.9-1.09,4.358,4.358,0,0,1,1.671-.315,19.337,19.337,0,0,0,2.348.072Z" transform="translate(-536.573 -172.261)" fill="#292f3a"/></g><g transform="translate(12.785 27.141)"><path d="M364.225,175.778v2.082c0,.218-.073.266-.266.242q-.872-.036-1.743,0c-.218,0-.266-.048-.266-.266.025-1.259,0-2.519,0-3.778a.529.529,0,0,0-.606-.606c-1.356,0-2.712-.024-4.068,0-.484,0-.726.073-.726.726v3.632c0,.193-.025.291-.266.266-.606-.024-1.21,0-1.792,0-.17,0-.218-.048-.218-.218v-4.189a1.362,1.362,0,0,1,.92-1.138,3.93,3.93,0,0,1,1.671-.291c1.623.025,3.245,0,4.867,0a3.59,3.59,0,0,1,1.938.533.986.986,0,0,1,.533.92C364.225,174.421,364.225,175.1,364.225,175.778Z" transform="translate(-354.274 -172.239)" fill="#292f3a"/></g><g transform="translate(23.675 25.71)"><path d="M422.488,171.435c-.581,0-1.138.025-1.719,0a2.571,2.571,0,0,1-1.864-.7,1.022,1.022,0,0,1-.315-.775V167.2c0-.193-.048-.242-.242-.242-.654.025-1.308,0-1.985,0-.193,0-.242-.048-.242-.242a2.546,2.546,0,0,0,0-.606c-.025-.242.025-.339.315-.315.629.025,1.283,0,1.913,0,.17,0,.242-.048.218-.218-.025-.411,0-.824,0-1.21,0-.218.073-.266.266-.242.581.025,1.186,0,1.768,0,.193,0,.242.048.242.242-.025.411,0,.824,0,1.21,0,.193.048.242.242.242h3.2c.242,0,.315.073.291.315a2.546,2.546,0,0,0,0,.606c.025.193-.048.266-.242.266h-3.2c-.242,0-.291.073-.291.291.025.775.025,1.526,0,2.3-.025.557.169.7.751.726a25.333,25.333,0,0,0,2.712.048c.193,0,.218.073.218.242-.025.291.1.654-.048.824-.145.193-.533.048-.8.048A9.548,9.548,0,0,0,422.488,171.435Z" transform="translate(-416.114 -164.116)" fill="#292f3a"/></g><g transform="translate(58.111 17.581)"><path d="M615.949,119.87H611.9c-.218,0-.266-.073-.266-.266a12.256,12.256,0,0,0,0-1.331c0-.242.048-.315.315-.315h7.6c.678,0,.678,0,.678.678,0,.315-.024.629,0,.969.024.218-.048.266-.266.266C618.636,119.847,617.3,119.87,615.949,119.87Z" transform="translate(-611.639 -117.958)" fill="#292f3a"/></g><g transform="translate(0.019 8.718)"><path d="M284.224,70.036h-2.179c-.218,0-.266-.048-.242-.266.024-.629,0-1.283,0-1.913,0-.17.048-.218.218-.218H286.5c.17,0,.218.048.218.218,0,.654-.025,1.308,0,1.937,0,.218-.073.242-.242.218C285.7,70.036,284.951,70.036,284.224,70.036Z" transform="translate(-281.797 -67.639)" fill="#292f3a"/></g><g transform="translate(0.019 18.017)"><path d="M284.224,122.779h-2.179c-.218,0-.266-.073-.242-.266.024-.629,0-1.235,0-1.864,0-.17.048-.218.218-.218H286.5c.17,0,.218.048.218.218v1.864c0,.193-.048.266-.242.266C285.7,122.756,284.951,122.779,284.224,122.779Z" transform="translate(-281.797 -120.431)" fill="#292f3a"/></g><g transform="translate(0 0.39)"><path d="M284.159,20.372h2.2c.17,0,.242.025.218.218-.024.606-.024,1.21,0,1.84,0,.193-.048.218-.218.218H281.9c-.17,0-.218-.048-.218-.218V20.565c0-.17.048-.218.218-.218C282.658,20.4,283.408,20.372,284.159,20.372Z" transform="translate(-281.688 -20.347)" fill="#292f3a"/></g><g transform="translate(57.843)"><path d="M624.11,25.507c0,.242-.073.266-.291.266h-1.986a3.739,3.739,0,0,0,1.187.969,2.772,2.772,0,0,0,.872.363c.145.048.218.1.218.266v1.792c0,.193-.048.242-.242.17-.145-.048-.291-.048-.436-.1-.339-.073-.339-.073-.242.242a4.3,4.3,0,0,1,.048,1.84,4.711,4.711,0,0,1-.048.824c-.025.121-.048.145-.17.145h-1.864c-.17,0-.193-.073-.193-.193.025-.315.073-.629.1-.944.048-.509-.025-.726-.581-.726-3,.025-6,0-9.007,0-.532,0-.532,0-.532-.533v-.726a5.118,5.118,0,0,0-.581.145c-.1.025-.266.073-.242-.121a7.945,7.945,0,0,0,.048-1.7.42.42,0,0,1,.315-.46,5.449,5.449,0,0,0,1.986-1.308h-1.21c-.242,0-.581.073-.727-.048-.17-.145-.048-.484-.048-.751s.024-.533,0-.824c-.025-.242.024-.339.315-.315.969.025,1.913,0,2.881,0,.17,0,.243-.025.315-.193.145-.363.339-.7.509-1.042a.506.506,0,0,0-.315-.048h-3.462c-.193,0-.242-.048-.242-.242.024-.509,0-1.017,0-1.5,0-.17.024-.242.218-.242.242,0,.581.121.726-.048s.048-.509.048-.751c0-.436.025-.9,0-1.331,0-.218.073-.242.266-.242.606.025,1.21.025,1.84,0,.193,0,.242.048.242.242-.024.629,0,1.259-.024,1.889,0,.218.073.266.266.266.315-.025.629,0,.969,0,.145,0,.218-.025.266-.17.242-.678.484-1.331.726-1.985a.279.279,0,0,1,.315-.218c.726.025,1.428,0,2.155,0,.218,0,.242.073.17.266-.266.7-.532,1.4-.823,2.131h2.76c.17,0,.193-.073.193-.218V18.436c0-.193.025-.266.242-.266.629.025,1.235.025,1.864,0,.17,0,.218.048.218.218-.024.629,0,1.259,0,1.889,0,.193.024.291.266.291s.557-.121.7.048c.121.145.048.436.048.678,0,.339-.024.678,0,1.017.025.242-.1.242-.266.242h-6.392a.459.459,0,0,0-.509.315,9.6,9.6,0,0,0-.363.9h7.313c.193,0,.243.048.243.242a10.6,10.6,0,0,0-.052,1.5Zm-10.944,2.761h7.966c-.315-.266-.629-.484-.9-.751a8.9,8.9,0,0,1-1.283-1.574.309.309,0,0,0-.315-.17H615.68a.379.379,0,0,0-.363.193,7.032,7.032,0,0,1-1.453,1.719,6.812,6.812,0,0,0-.7.581Z" transform="translate(-610.112 -18.144)" fill="#292f3a" fill-rule="evenodd"/></g><g transform="translate(14.228 0.09)"><path d="M370.7,25.934c.025.993,0,1.985,0,3V36.8a3.417,3.417,0,0,1-.266,1.38,1.867,1.867,0,0,1-1.526,1.09,4.668,4.668,0,0,1-1.162,0c-.145,0-.193-.025-.193-.17V37.12c0-.145.048-.17.193-.17.557-.025.751-.242.751-.8v-2.3c0-.193-.048-.218-.218-.218-1.017,0-2.058.025-3.075,0-.218,0-.242.073-.242.266,0,.726.024,1.428,0,2.155a5.194,5.194,0,0,1-.388,1.816,2.179,2.179,0,0,1-1.744,1.283c-.363.073-.388.048-.315-.363a4.1,4.1,0,0,0,.024-.557,7.553,7.553,0,0,1,.218-2.543.973.973,0,0,0,0-.266v-14.4a2.385,2.385,0,0,1,.654-1.816,1.771,1.771,0,0,1,1.065-.46,26.05,26.05,0,0,1,3.365-.048,4.053,4.053,0,0,1,1.84.315,1.749,1.749,0,0,1,.969,1.477C370.768,22.329,370.671,24.145,370.7,25.934Zm-2.422,5.618c.17,0,.218-.048.218-.218V27.387c0-.17-.048-.218-.218-.218H365.15c-.17,0-.218.048-.218.218v3.947c0,.17.048.218.218.218Zm0-6.441c.17,0,.218-.048.218-.218v-1.6c0-.484-.025-.993,0-1.477.025-.581-.315-.8-.8-.824-.7-.025-1.4-.025-2.082,0a.553.553,0,0,0-.606.411,4.015,4.015,0,0,0-.073.533V24.89c0,.17.048.218.218.218q1.561-.036,3.124,0Z" transform="translate(-362.478 -18.662)" fill="#292f3a" fill-rule="evenodd"/></g><g transform="translate(49.465 0.13)"><path d="M569.985,29.19v8.16a2.191,2.191,0,0,1-.8,1.719,1.991,1.991,0,0,1-1.26.388c-.581.025-1.162,0-1.743,0-.17,0-.218-.048-.218-.218V37.375c0-.17.073-.193.218-.193h.969a.636.636,0,0,0,.678-.7c.025-.993.025-2.01.073-3,0-.218-.048-.266-.266-.242-.654,0-1.308.025-1.938,0-.218,0-.242.073-.242.266v2.3a3.62,3.62,0,0,1-2.688,3.535c-.145.048-.218.025-.218-.17v-2.01a.329.329,0,0,1,.17-.315,1.294,1.294,0,0,0,.606-1.065c.121-1.55.048-3.1.048-4.625.024-3.39,0-6.8,0-10.194a1.915,1.915,0,0,1,1.743-1.985,16.1,16.1,0,0,1,2.858-.048,1.952,1.952,0,0,1,1.694.9,2.322,2.322,0,0,1,.339,1.186C569.985,23.718,569.985,26.454,569.985,29.19ZM567.9,30.619c.024-1.065-.121-2.131-.073-3.22,0-.145-.025-.218-.193-.218h-1.961c-.17,0-.218.048-.218.218.025.557,0,1.114,0,1.646v1.646c0,.17.048.218.218.218.654,0,1.308-.025,1.938,0,.242.025.291-.073.291-.291Zm0-6.005c.024-1.017-.1-2.034-.073-3.027,0-.436-.121-.509-.533-.533-.388-.025-.8,0-1.187,0-.484,0-.654.17-.654.654v2.954c0,.17.048.242.218.218.654,0,1.308-.025,1.986,0,.193,0,.243-.073.243-.266Z" transform="translate(-562.55 -18.883)" fill="#292f3a" fill-rule="evenodd"/></g><g transform="translate(5.78 0.171)"><path d="M322.453,22.6c0,.218-.073.242-.266.242h-2.349c-.193,0-.242.048-.242.242v4.479c0,.193.073.242.242.242a2.826,2.826,0,0,1,1.6.242,1.811,1.811,0,0,1,1.017,1.646v7.772a2.2,2.2,0,0,1-.484,1.5,1.9,1.9,0,0,1-1.283.654,30,30,0,0,1-3.608.048,3.131,3.131,0,0,1-1.792-.436,2,2,0,0,1-.726-1.162,2.96,2.96,0,0,1-.048-.8c0-2.519.025-5.061,0-7.579a2.078,2.078,0,0,1,1.6-1.84,7.827,7.827,0,0,1,1.065-.048c.145,0,.193-.025.193-.17V23.055c0-.17-.073-.17-.218-.17H314.8c-.218,0-.315-.025-.291-.266.025-.581.025-1.186,0-1.768,0-.17.048-.242.218-.218h2.348c.242,0,.291-.073.266-.291-.025-.339,0-.7,0-1.042,0-.145.025-.193.17-.193h1.913c.145,0,.17.048.17.193v.993c-.025.218.048.291.266.291.775-.025,1.55,0,2.325,0,.218,0,.266.048.242.266C322.453,21.385,322.453,21.99,322.453,22.6Zm-2.978,14.746a.706.706,0,0,0,.726-.684V33.733c0-.944.025-1.889,0-2.857-.025-.606-.145-.775-.775-.8h-1.889c-.557,0-.751.193-.751.775v5.4a5.561,5.561,0,0,0,.073.629.516.516,0,0,0,.411.411,2.642,2.642,0,0,0,.629.073c.484,0,1.042-.025,1.574-.025Z" transform="translate(-314.504 -19.108)" fill="#292f3a" fill-rule="evenodd"/></g><g transform="translate(55.856 27.182)"><path d="M609.635,173.942v4.649c0,.92-.291,1.09-.993,1.4a3.439,3.439,0,0,1-1.4.242c-1.235-.025-2.47,0-3.729,0H599.47c-.218,0-.266-.048-.266-.266a2.541,2.541,0,0,0,0-.606c-.025-.218.073-.242.266-.242,2.155,0,4.31.025,6.489,0a4.819,4.819,0,0,0,1.017-.1.4.4,0,0,0,.339-.533v-.17c0-.654,0-.654-.629-.654-1.574,0-3.147.025-4.7-.025a6.223,6.223,0,0,1-2.107-.266,1.482,1.482,0,0,1-1.042-1.428,15.539,15.539,0,0,0,0-1.84,1.276,1.276,0,0,1,.751-1.235,3.4,3.4,0,0,1,1.525-.388c2.131,0,4.263-.025,6.392,0a2.593,2.593,0,0,1,1.864.726.942.942,0,0,1,.266.736Zm-2.3.266a.431.431,0,0,0-.291-.436.951.951,0,0,0-.436-.1h-4.722c-.508,0-.7.193-.7.678v1.574a.469.469,0,0,0,.363.484,1.943,1.943,0,0,0,.727.1c1.5.025,3,.073,4.479-.048a.556.556,0,0,0,.606-.629,12.16,12.16,0,0,1-.024-1.622Z" transform="translate(-598.834 -172.478)" fill="#292f3a" fill-rule="evenodd"/></g><g transform="translate(33.124 27.121)"><path d="M480.583,173.671a3.5,3.5,0,0,1-.025.872,1.482,1.482,0,0,1-1.041.993,2.66,2.66,0,0,1-1.065.17c-2.059.121-4.116.025-6.175.048-.193,0-.242.073-.242.242,0,.751.121.847.847.872,2.373.121,4.745.025,7.143.048.193,0,.242.048.218.218-.025.291.121.678-.073.824-.145.145-.532.048-.823.048h-7.409a3.1,3.1,0,0,1-1.719-.509,1,1,0,0,1-.46-.872v-3.1a1.4,1.4,0,0,1,1.114-1.21,6.579,6.579,0,0,1,1.526-.193h5.52a4.631,4.631,0,0,1,1.889.388,1.14,1.14,0,0,1,.775,1.161Zm-2.325.46c.073-.606-.121-.8-.726-.8-1.477,0-2.979.025-4.48,0-1.042-.025-1.042.145-1.042,1.065,0,.17.048.218.218.218.775-.025,1.574,0,2.445,0,.9-.025,1.913.025,2.906-.048.363-.049.654-.218.678-.436Z" transform="translate(-469.759 -172.121)" fill="#292f3a" fill-rule="evenodd"/></g><g transform="translate(84.431 27.205)"><path d="M772.721,177.68c0,.242.073.557-.048.7-.145.17-.484.048-.726.048a2.2,2.2,0,0,1-1.041-.17c-.243-.121-.436.025-.654.073a3.008,3.008,0,0,1-.8.1H763.3a3.068,3.068,0,0,1-1.864-.606.877.877,0,0,1-.363-.751V174.1a1.135,1.135,0,0,1,.484-.92,2.772,2.772,0,0,1,1.671-.557h3.051c1.041,0,2.082-.025,3.147,0a2.876,2.876,0,0,1,1.889.726.834.834,0,0,1,.291.678v2.47c0,.509.145.678.677.7C772.721,177.245,772.721,177.245,772.721,177.68Zm-3.946-.411a.6.6,0,0,0,.581-.606c-.024-.775-.024-1.526,0-2.3a.518.518,0,0,0-.388-.533.944.944,0,0,0-.363-.048h-4.528c-.629,0-.751.291-.726.726.025.726,0,1.453,0,2.179a.525.525,0,0,0,.46.581,7.3,7.3,0,0,0,.727.073h1.889c.7-.048,1.525.025,2.348-.073Z" transform="translate(-761.074 -172.608)" fill="#292f3a" fill-rule="evenodd"/></g></g><g transform="translate(0.071 -0.037)"><path d="M1.258,95.823c0,.073-.025.121-.025.193a.6.6,0,0,1,.025-.193Z" transform="translate(-1.086 -78.913)" fill="#434343"/><path d="M1.258,95.823c0,.073-.025.121-.025.193a.6.6,0,0,1,.025-.193Z" transform="translate(-1.086 -78.913)" fill="#434343"/><path d="M1.258,95.823h0c0,.048-.025.121-.025.193a.6.6,0,0,1,.025-.193Z" transform="translate(-1.086 -78.913)" fill="#434343"/><path d="M40.945,19.367h-.218c-2.421.242-3.39-4.359-4.116-5.327s-1.694-2.663-3.875-2.179c-2.373.533-6.538,5.812-7.264,5.569-1.017-.339,2.712-11.089.242-11.623-3.39-.726-10.968,10.484-12.35,9.927-1.21-.484,2.906-8.475-.726-8.717A4.983,4.983,0,0,0,9.9,8.058c-.121.073-.242.17-.363.242a28.02,28.02,0,0,0-2.564,2.18c-.145.121-.266.266-.411.411h0l-.218.218-.218.219c-.339.363-.7.7-1.017,1.065-.1.121-.218.242-.315.363-.8.872-1.55,1.719-2.131,2.445a3.279,3.279,0,0,0-.291.291c-.193.242-.388.484-.557.678a.652.652,0,0,1-.17.193,2.119,2.119,0,0,1-.193.242.648.648,0,0,0-.121.145c-.025.048-.073.073-.1.121A19.977,19.977,0,0,1,40.94,19.365Z" transform="translate(-1.087 0.037)" fill="url(#a)"/><path d="M226.754,110.128v-.145h0a.153.153,0,0,0,0,.145Z" transform="translate(-186.871 -90.578)" fill="#434343"/><path d="M40,92.369A19.96,19.96,0,0,1,.408,90.577c.048.121.1.17.17.048.484-.726,4.844-6.053,5.812-5.085S2.757,95.71,5.42,96.193,17.043,83.6,19.22,83.843s-3.632,12.785-.969,13.317c2.424.488,8.48-9.924,11.386-9.924,2.227,0,3.147,2.179,5.812,4.844C37.942,94.572,39.733,92.684,40,92.369Z" transform="translate(-0.408 -69.042)" fill="url(#b)"/><path d="M226.754,110.128v-.145h0a.153.153,0,0,0,0,.145Z" transform="translate(-186.871 -90.578)" fill="#434343"/><path d="M225.189,130.443c.025-.121.048-.266.073-.388C225.237,130.176,225.214,130.321,225.189,130.443Z" transform="translate(-185.598 -107.115)" fill="#434343"/><path d="M226.754,110.128v-.145h0a.153.153,0,0,0,0,.145Z" transform="translate(-186.871 -90.578)" fill="#434343"/></g></g></svg>